<?xml version="1.0" encoding="utf-8"?>
<!-- Generator: Adobe Illustrator 16.0.4, SVG Export Plug-In . SVG Version: 6.00 Build 0)  -->
<!DOCTYPE svg PUBLIC "-//W3C//DTD SVG 1.1//EN" "http://www.w3.org/Graphics/SVG/1.1/DTD/svg11.dtd">
<svg version="1.1" id="Layer_1" xmlns="http://www.w3.org/2000/svg" xmlns:xlink="http://www.w3.org/1999/xlink" x="0px" y="0px"
	 width="564.665px" height="523.941px" viewBox="0 0 564.665 523.941" enable-background="new 0 0 564.665 523.941"
	 xml:space="preserve">
<line x1="225.457" y1="445.921" x2="225.445" y2="446.002"/>
<path d="M139.974,133.88c-3.922-1.242-6.831,1.258-7.358,2.923c0.199-2.299-1.038-5.336-4.295-6.367
	c-2.701-0.854-7.38-0.992-9.628,6.113l-2.799,8.844l25.903,8.197l2.811-8.881C146.856,137.604,142.675,134.735,139.974,133.88
	 M129.572,139.993l-1.452,4.588l-7.067-2.236l1.451-4.589c1.101-3.478,3.546-3.356,4.841-2.946
	C128.603,135.208,130.673,136.514,129.572,139.993 M140.855,143.319l-1.523,4.811l-7.4-2.342l1.534-4.848
	c1.03-3.256,3.718-3.26,5.014-2.85C139.996,138.569,141.956,139.841,140.855,143.319"/>
<path d="M155.297,119.481l2.075-4.215l-28.529-3.571l-1.388,2.822l20.232,20.427l2.074-4.214l-2.586-2.57l4.508-9.16
	L155.297,119.481z M144.188,125.175l-9.379-8.812l12.688,2.09L144.188,125.175z"/>
<polygon points="141.822,97.16 161.048,110.097 163.539,106.393 144.313,93.458 148.084,87.854 144.767,85.623 
	134.757,100.5 138.073,102.731 "/>
<polygon points="171.496,95.626 159.288,84.075 176.164,90.692 178.485,88.238 170.945,71.754 183.154,83.305 
	186.221,80.062 166.485,61.389 163.551,64.491 172.291,84.676 151.626,77.093 148.692,80.195 168.428,98.869 "/>
<path d="M191.476,76.188l-1.118-3.47l8.206-6.069l2.991,2.084l3.775-2.792l-23.706-16.258l-2.527,1.869l8.602,27.429
	L191.476,76.188z M195.095,64.243l-6.023,4.455l-4.288-12.131L195.095,64.243z"/>
<polygon points="210.983,62.909 202.08,45.755 220.524,57.957 224.865,55.703 212.35,31.592 208.389,33.647 
	217.292,50.801 198.847,38.6 194.507,40.853 207.021,64.966 "/>
<polygon points="330.632,41.121 341.228,44.802 342.539,41.025 331.944,37.344 334.771,29.205 345.366,32.886 
	346.678,29.11 331.866,23.964 322.951,49.628 327.168,51.093 "/>
<polygon points="353.256,62.306 355.026,58.721 347.51,55.007 357.774,34.23 353.772,32.253 341.736,56.614 "/>
<rect x="351.438" y="51.357" transform="matrix(-0.5209 0.8536 -0.8536 -0.5209 600.978 -229.9651)" width="27.17" height="4.62"/>
<polygon points="367.703,71.643 379.659,56.45 376.154,78.293 379.998,81.318 396.804,59.963 393.295,57.202 
	381.339,72.395 384.845,50.553 381.001,47.527 364.195,68.882 "/>
<path d="M389.239,90.961c6.005,6.709,14.397,6.02,19.518,1.438c5.118-4.581,6.731-12.847,0.726-19.557l-5.874-6.564
	l-20.244,18.118L389.239,90.961z M403.605,72.269l2.898,3.239c4.038,4.512,2.813,10.243-0.802,13.478
	c-3.615,3.236-9.447,3.82-13.484-0.691l-2.898-3.24L403.605,72.269z"/>
<polygon points="408.831,117.48 412.195,115.318 406.13,105.881 412.432,101.832 418.497,111.269 421.861,109.106 
	415.796,99.67 422.262,95.515 428.326,104.952 431.689,102.791 423.211,89.598 400.354,104.289 "/>
<path d="M412.883,125.481l7.431-3.344l1.832,4.07l-5.395,7.874l2.086,4.636l5.856-8.55
	c2.809,2.651,6.85,3.216,10.389,1.623c4.672-2.102,7.126-7.334,4.738-12.642l-3.997-8.883l-24.772,11.146L412.883,125.481z
	 M434.01,115.975l2.166,4.813c1.273,2.831-0.199,5.706-2.924,6.932c-2.726,1.227-5.854,0.421-7.128-2.41l-2.165-4.813
	L434.01,115.975z"/>
<path d="M433.552,147.488c-0.138,1.972-0.345,4.567-3,5.304c-2.356,0.654-4.418-0.828-5.083-3.222
	c-0.82-2.954,0.533-5.626,3.937-6.571l-1.194-4.301c-5.872,1.63-8.018,6.817-6.698,11.568c1.35,4.862,5.334,8.187,10.721,6.692
	c5.011-1.392,5.371-6.769,5.698-11.251c0.171-2.141,0.661-4.292,2.793-4.883c2.207-0.613,3.827,0.871,4.419,3.003
	c0.675,2.43-0.667,4.415-3.248,5.131l1.194,4.301c4.861-1.35,7.184-5.901,5.876-10.614c-1.216-4.376-5.097-7.328-9.436-6.123
	C434.295,137.975,433.905,142.233,433.552,147.488"/>
<polygon points="157.464,258.617 146.903,264.109 143.711,257.971 141.629,253.968 152.191,248.476 150.092,244.441 
	125.531,257.214 127.629,261.248 138.015,255.848 140.352,260.341 143.288,265.988 132.902,271.389 135,275.424 159.562,262.652 "/>
<path d="M144.626,290.415c0.088,0.128,0.166,0.259,0.262,0.386c0.462,0.616,0.963,1.159,1.492,1.634
	c3.653,3.279,8.697,3.23,12.454,0.409l14.74-11.064l-2.731-3.639l-14.74,11.065c-2.076,1.559-4.758,1.771-6.757,0.332
	c-0.437-0.315-0.843-0.707-1.201-1.184c-0.181-0.241-0.33-0.491-0.464-0.744c-1.297-2.457-0.377-5.35,1.917-7.07l14.74-11.064
	l-2.73-3.638l-14.741,11.064C142.68,280.044,141.385,285.71,144.626,290.415"/>
<polygon points="160.421,308.16 171.997,295.542 165.522,312.839 168.056,315.164 184.732,307.223 173.157,319.843 
	176.508,322.917 195.222,302.518 192.017,299.577 171.588,308.798 178.989,287.626 175.784,284.686 157.069,305.085 "/>
<polygon points="197.203,336.469 199.394,333.034 189.756,326.891 193.859,320.456 203.496,326.598 205.686,323.165 
	196.049,317.02 200.259,310.419 209.895,316.562 212.085,313.128 198.614,304.54 183.731,327.88 "/>
<polygon points="337.589,320.938 335.875,343.28 320.856,326.63 316.738,328.031 325.651,354.234 329.956,352.77 
	324.443,336.561 336.507,350.542 339.764,349.434 340.802,330.998 346.314,347.206 350.619,345.743 341.707,319.539 "/>
<rect x="339.87" y="326.135" transform="matrix(-0.4495 -0.8933 0.8933 -0.4495 219.2495 792.0994)" width="27.681" height="4.706"/>
<polygon points="369.349,307.955 367.181,304.504 351.71,314.231 353.879,317.68 359.671,314.038 372.238,334.031 
	376.09,331.609 363.521,311.618 "/>
<path d="M397.074,303.833c1.399,2.979,0.348,7.002-2.063,9.113c-5.059,4.43-11.038,3.304-14.79-0.982
	c-3.569-4.076-4.116-10.224,0.676-14.418c3.422-2.996,7.586-2.804,10.595-0.39l3.6-3.153c-4.589-3.92-11.134-4.551-17.324,0.868
	c-6.547,5.731-6.009,14.514-1.058,20.168c5.133,5.861,13.725,7.33,20.539,1.362c5.119-4.48,6.195-10.996,3.575-15.852
	L397.074,303.833z"/>
<polygon points="399.751,271.907 409.1,279.273 402.028,288.25 392.679,280.883 389.865,284.456 411.606,301.584 
	414.42,298.012 405.228,290.769 412.299,281.792 421.493,289.037 424.307,285.464 402.565,268.335 "/>
<polygon points="428.845,278.342 434.395,268.458 436.668,264.412 433.115,262.416 431.049,266.096 427.52,272.381 
	420.864,268.645 424.779,261.671 426.461,258.679 422.908,256.684 421.434,259.311 417.312,266.65 410.483,262.816 415.003,254.771 
	416.082,252.851 412.529,250.856 411.657,252.41 404.706,264.788 "/>
<polygon points="444.808,245.289 441.035,243.752 437.811,251.662 415.945,242.749 414.229,246.96 439.865,257.411 
	"/>
<polygon points="450.172,227.249 446.255,226.131 443.91,234.345 421.207,227.866 419.96,232.239 446.579,239.836 
	"/>
<path d="M254.394,288.642c0.753,0.259,1.517,0.53,2.294,0.809c5.836,2.084,12.453,4.445,20.119,2.986l2.08-0.399
	c6.414-1.236,7.399-1.427,11.469-0.59c1.045,0.216,2.118,0.515,3.253,0.833c2.514,0.702,5.238,1.464,8.277,1.464
	c1.768,0,3.641-0.257,5.64-0.934c6.974-2.358,11.584-3.68,16.844-2.139c6.873,2.015,11.089,2.335,13.671,1.045
	c0.724-0.361,1.017-1.241,0.654-1.966c-0.361-0.722-1.239-1.017-1.965-0.654c-1.794,0.896-5.675,0.482-11.537-1.235
	c-6.526-1.913-12.393,0.073-18.604,2.174c-4.584,1.549-8.451,0.468-12.191-0.576c-1.185-0.332-2.305-0.645-3.451-0.881
	c-4.64-0.954-6.17-0.66-12.613,0.583l-2.073,0.397c-6.885,1.311-12.834-0.813-18.586-2.867c-0.788-0.281-1.563-0.559-2.326-0.821
	c-5.262-1.808-11.625-1.34-18.911,1.394c-3.533,1.323-13.663-0.587-17.268-1.434c-0.786-0.185-1.576,0.302-1.761,1.09
	s0.303,1.576,1.09,1.762c1.416,0.333,13.969,3.2,18.967,1.324C244.098,287.52,249.794,287.06,254.394,288.642"/>
<path d="M263.051,297.949c1.756,0.351,12.801,2.183,17.553,2.39l0.443,0.02c2.805,0.123,6.716,0.293,10.122,0.293
	c2.418,0,4.582-0.085,5.917-0.336c1.438-0.27,4.489-0.389,7.44-0.503c3.286-0.128,6.684-0.261,8.691-0.611
	c1.988-0.348,4.18-0.141,5.778,0.011c1.749,0.166,2.629,0.249,3.333-0.296c0.641-0.495,0.757-1.415,0.264-2.055
	c-0.416-0.536-1.131-0.704-1.728-0.454c-0.297,0.012-1.011-0.056-1.592-0.112c-1.766-0.167-4.184-0.396-6.562,0.021
	c-1.812,0.316-5.109,0.445-8.3,0.569c-3.197,0.124-6.218,0.242-7.865,0.552c-2.887,0.542-11.009,0.186-15.372-0.004l-0.444-0.021
	c-4.325-0.188-14.999-1.915-17.106-2.336c-2.275-0.456-7.626-0.207-12.642,0.997c-4.518,1.085-9.531,0.005-9.582-0.006
	c-0.786-0.176-1.571,0.324-1.746,1.114c-0.174,0.789,0.323,1.569,1.112,1.745c0.231,0.052,5.706,1.24,10.9-0.006
	C256.487,297.765,261.375,297.614,263.051,297.949"/>
<path d="M478.78,374.996c-2.803,1.589-3.332,4.958-1.782,7.692c1.549,2.735,4.711,4.013,7.514,2.425
	c2.872-1.626,3.401-4.996,1.852-7.729C484.813,374.648,481.652,373.37,478.78,374.996z"/>
<path d="M497.948,363.41c-2.709,1.745-3.047,5.14-1.346,7.781c1.701,2.645,4.932,3.742,7.641,1.997
	c2.774-1.787,3.112-5.181,1.411-7.823S500.723,361.625,497.948,363.41z"/>
<path d="M270.711,417.542l-5.339-0.188l-0.396,11.151l5.34,0.188c3.141,0.112,5.273-2.368,5.38-5.391
	C275.804,420.279,273.854,417.654,270.711,417.542z"/>
<path d="M95.363,378.073c-2.313-1.254-4.839-0.882-6.263,1.743l8.012,4.344
	C98.442,381.708,97.643,379.309,95.363,378.073z"/>
<path d="M349.978,420.724c-3.176,0.54-4.818,3.53-4.292,6.628c0.528,3.1,3.068,5.376,6.244,4.835
	c3.253-0.554,4.896-3.543,4.368-6.641C355.771,422.448,353.23,420.17,349.978,420.724z"/>
<path d="M564.182,367l-45.36-57.402c-0.022-0.027-0.05-0.049-0.074-0.075c-0.057-0.065-0.116-0.128-0.18-0.187
	c-0.045-0.042-0.093-0.08-0.142-0.117c-0.065-0.051-0.133-0.099-0.203-0.141c-0.055-0.033-0.109-0.062-0.166-0.09
	c-0.072-0.037-0.147-0.07-0.224-0.099c-0.062-0.022-0.127-0.042-0.191-0.059c-0.074-0.02-0.15-0.037-0.228-0.049
	c-0.032-0.005-0.062-0.018-0.096-0.021c-0.043-0.005-0.086,0-0.129-0.002c-0.042-0.002-0.082-0.013-0.125-0.013h-25.594h-5.441
	h-7.956h-5.211h-6.991h-5.006h-6.655h-4.814h-6.162h-4.64h-5.025h-4.491h-0.397c0.059-0.072,0.115-0.145,0.175-0.217
	c0.666-0.813,1.326-1.631,1.978-2.455c0.681-0.86,1.349-1.73,2.015-2.603c0.638-0.835,1.27-1.674,1.895-2.521
	c0.721-0.979,1.44-1.96,2.144-2.953c0.607-0.858,1.204-1.724,1.798-2.592c0.663-0.969,1.312-1.947,1.958-2.929
	c0.578-0.88,1.149-1.762,1.713-2.649c0.585-0.924,1.169-1.848,1.738-2.782c0.548-0.897,1.078-1.807,1.61-2.715
	c0.561-0.955,1.112-1.915,1.656-2.881c0.516-0.916,1.032-1.832,1.534-2.758c14.459-26.703,22.677-57.257,22.677-89.697
	C471.569,84.783,386.786,0,282.574,0S93.58,84.783,93.58,188.995c0,32.046,8.027,62.248,22.16,88.719
	c0.496,0.93,1.001,1.854,1.512,2.774c0.53,0.954,1.061,1.908,1.608,2.852c0.527,0.911,1.066,1.815,1.608,2.717
	c0.555,0.924,1.121,1.84,1.691,2.753c0.558,0.893,1.118,1.784,1.69,2.668c0.63,0.972,1.265,1.94,1.912,2.9
	c0.588,0.873,1.191,1.734,1.793,2.597c0.688,0.984,1.385,1.961,2.091,2.932c0.619,0.851,1.239,1.701,1.872,2.541
	c0.65,0.865,1.31,1.723,1.975,2.575c0.646,0.829,1.305,1.648,1.965,2.467c0.338,0.419,0.671,0.842,1.013,1.257h-2.3h-4.491h-5.025
	h-4.64h-6.162h-4.815h-6.655h-5.006h-6.991h-5.211h-7.956h-5.441H47.603c-0.043,0-0.083,0.011-0.125,0.013
	c-0.044,0.002-0.087-0.003-0.131,0.002c-0.033,0.004-0.064,0.017-0.098,0.021c-0.074,0.012-0.147,0.028-0.219,0.048
	c-0.068,0.018-0.136,0.038-0.202,0.062c-0.072,0.026-0.141,0.058-0.21,0.092c-0.062,0.029-0.123,0.062-0.181,0.098
	c-0.064,0.04-0.126,0.083-0.186,0.129c-0.055,0.042-0.109,0.085-0.161,0.132c-0.055,0.053-0.107,0.107-0.158,0.164
	c-0.028,0.032-0.061,0.059-0.087,0.091L0.483,367c-0.766,0.969-0.604,2.374,0.362,3.144c39.172,31.189,82.845,55.48,129.805,72.197
	c48.594,17.297,99.627,26.068,151.682,26.068c52.057,0,103.088-8.771,151.683-26.068c46.96-16.717,90.633-41.008,129.805-72.197
	C564.785,369.374,564.947,367.968,564.182,367z M510.548,313.229c-2.038,1.569-4.091,3.115-6.153,4.64l-6.573-4.64H510.548z
	 M492.379,313.229l9.346,6.596c-1.527,1.109-3.059,2.209-4.599,3.292l-13.109-9.888H492.379z M478.807,313.229l15.602,11.768
	c-1.498,1.034-2.994,2.072-4.504,3.083l-18.461-14.851H478.807z M466.438,313.229l20.707,16.656
	c-1.577,1.036-3.156,2.068-4.746,3.078l-22.97-19.734H466.438z M454.612,313.229l24.999,21.477
	c-1.612,1.004-3.229,1.999-4.852,2.978l-26.643-24.454H454.612z M443.477,313.229l28.47,26.131c-1.465,0.865-2.935,1.719-4.41,2.562
	l-29.378-28.692H443.477z M433.667,313.229l31.029,30.306c-1.59,0.891-3.187,1.766-4.789,2.633l-31.589-32.938H433.667z
	 M416.601,322.112c0.995-1,1.979-2.01,2.951-3.033l29.363,32.825c-1.771,0.883-3.551,1.742-5.334,2.596L416.601,322.112z
	 M440.652,355.886c-1.761,0.825-3.524,1.646-5.296,2.441l-24.08-31.069c1.038-0.967,2.065-1.945,3.082-2.935L440.652,355.886z
	 M421.699,316.773c0.925-1.008,1.838-2.026,2.742-3.053l32.602,33.994c-1.738,0.922-3.486,1.82-5.238,2.713L421.699,316.773z
	 M467.041,185.438l-56.726-26.505c-11.308-48.052-49.101-85.996-97.066-97.528l-26.571-56.87
	C385.347,6.699,465.163,86.699,467.041,185.438z M411.599,165.051l51.824,24.215l-51.943,24.271
	c1.513-7.953,2.314-16.155,2.314-24.542C413.794,180.819,413.036,172.816,411.599,165.051z M378.756,196.761
	c1.397,16.316,5.464,29.722,7.037,34.44c-18.156,1.464-29.876,2.208-34.82,2.208c-0.884,0-1.703,0.074-2.475,0.2v-65.133
	l42.106-29.942C380.87,153.81,376.786,173.727,378.756,196.761z M362.199,121.528h11.299c-7.681,11.434-7.396,24.494-6.952,29.393
	c-3.323-0.417-10.419-1.001-18.048,0.262v-29.655H362.199z M348.498,118.598v-14.901l10.825,14.901H348.498z M364.295,153.647
	l-8.682,6.174h-7.115v-5.615C354.704,153.123,360.642,153.328,364.295,153.647z M351.493,162.751l-2.995,2.129v-2.129H351.493z
	 M369.424,150c-0.359-5.233-0.253-18.012,7.683-28.473h4.587c0.809,0,1.465-0.656,1.465-1.465s-0.656-1.465-1.465-1.465h-18.749
	l-14.446-19.886v-3.659c0-0.809-0.654-1.465-1.464-1.465c-0.809,0-1.465,0.656-1.465,1.465v3.654l-13.704,18.623
	c-0.392-0.759-0.758-1.51-1.103-2.252c-0.01-0.02-0.021-0.041-0.029-0.062c-9.689-20.926-0.969-34.581,1.462-37.776l8.77-0.219
	c0.222-0.006,0.422-0.071,0.606-0.165c23.103,12.204,42.006,31.332,53.915,54.612L369.424,150z M295.594,234.802
	c6.284-2.358,12.646-2.957,19.044-1.816l6.785,17.429c-8.859,0.963-19.188,1.474-30.231,1.656v-15.306
	C292.559,236.057,294.027,235.389,295.594,234.802z M291.191,233.495v-60.733l22.246,57.141c-7.453-0.998-13.877,0.283-18.873,2.156
	C293.386,232.5,292.264,232.986,291.191,233.495z M318.086,233.771c6.227,1.717,12.481,5.078,18.729,10.078
	c0.157,0.351,0.297,0.651,0.415,0.899c-1.547,1.923-4.062,4.011-7.954,4.63c-1.55,0.248-3.169,0.477-4.845,0.687L318.086,233.771z
	 M345.569,171.963v62.486c-3.813,1.617-5.707,4.75-6.239,6.693c-0.024,0.07-0.104,0.28-0.233,0.574
	C335.271,232.655,324.358,200.75,345.569,171.963z M330.382,219.875c0.885,7.739,2.742,14.243,4.358,18.778
	c-6.374-4.413-12.396-6.929-17.926-8.15l-25.623-65.815v-1.937h31.454c0.001,0,0.002,0,0.003,0c0,0,0.002,0,0.003,0h7.643h1.043
	h14.232v4.451C330.202,185.93,328.816,206.159,330.382,219.875z M326.18,111.587c-12.667-8.277-25.117-9.192-34.988-7.682V78.265
	l37.454-0.936C325.484,82.497,320.153,94.682,326.18,111.587z M328.287,116.687c0.291,0.619,0.6,1.244,0.922,1.875L291.191,118
	v-11.061C302.079,105.154,315.239,106.562,328.287,116.687z M328.965,121.488c-9.258,15.088-2.8,32.321-0.002,38.334h-5.439
	c-2.207-4.264-12.424-26.039,1.856-38.387L328.965,121.488z M321.254,121.374c-8.825,9.748-6.562,23.205-3.628,31.917
	c-5.354-3.352-15.523-8.537-26.435-7.96v-24.4L321.254,121.374z M319.479,158.1c0.281,0.645,0.545,1.222,0.782,1.722h-29.069
	v-11.551C304.735,147.52,317.572,156.676,319.479,158.1z M334.268,159.822c3.395-2.467,7.333-4.037,11.302-5.004v5.004H334.268z
	 M331.486,158.243c-2.709-6.083-8.657-22.942,0.959-36.715h13.124v30.234C340.644,152.889,335.668,154.873,331.486,158.243z
	 M334.57,118.598l10.999-14.948v14.948H334.57z M332.43,74.304c-0.487-0.295-1.1-0.275-1.568,0.039l-39.67,0.992V69.78
	c0-0.809-0.656-1.465-1.465-1.465c-0.81,0-1.465,0.656-1.465,1.465v5.628l-18.265,0.456c-0.809,0.021-1.448,0.693-1.427,1.501
	c0.019,0.797,0.671,1.429,1.463,1.429c0.012,0,0.025,0,0.037-0.001l3.371-0.084c-4.82,5.434-14.194,18.941-10.402,38.58
	c0,0.003,0.001,0.005,0.002,0.008c0.084,0.434,0.18,0.874,0.277,1.315c-1.269,1.355-4.215,4.893-6.137,10.273
	c-5.974-0.893-14.145-1.227-21.721-1.311v-7.83c6.5-0.022,10.59,2.875,10.857,3.071c0.492,0.364,1.157,0.384,1.67,0.052
	c0.513-0.333,0.766-0.95,0.633-1.547c-0.68-3.061-0.922-5.835-0.865-8.33c3.092-0.069,5.898-0.174,8.197-0.328
	c0.807-0.054,1.418-0.751,1.364-1.559c-0.054-0.807-0.768-1.414-1.559-1.364c-2.191,0.146-4.851,0.248-7.786,0.317
	c1.13-9.072,6.193-13.645,6.479-13.896c0.468-0.405,0.632-1.061,0.407-1.638c-0.225-0.577-0.791-0.956-1.407-0.933L235.46,94.1
	V82.646c0-0.809-0.656-1.465-1.465-1.465c-0.809,0-1.465,0.656-1.465,1.465v11.537l-13.739,0.39
	c-0.471,0.013-0.906,0.252-1.17,0.641c-3.304,4.862-4.988,9.933-5.728,14.666c-3.625-0.077-5.929-0.141-6.018-0.143
	c-0.802-0.046-1.482,0.614-1.505,1.423s0.614,1.482,1.423,1.505c0.087,0.002,2.281,0.063,5.753,0.138
	c-0.492,6.034,0.426,11.277,1.224,14.458c-7.93,7.656-13.171,18.446-12.596,30.084c-2.736,0.762-9.687,3.047-17.156,8.237
	c-8.477,5.89-19.14,16.757-22.489,35.277l-4.502-4.897c-0.126-2.307-0.19-4.63-0.19-6.967c0-69.883,56.855-126.737,126.737-126.737
	c19.18,0,37.374,4.291,53.686,11.95L332.43,74.304z M264.545,164.251c-0.798,1.467-1.561,3.013-2.285,4.647
	c-9.936,22.433-6.44,41.545-1.757,53.628c2.603,6.718,5.8,12.008,8.338,15.613c-4.295-2.004-8.372-3.438-12.208-4.434
	l-17.956-56.321l18.173-0.126c0.018,0,0.036-0.005,0.054-0.006c0.026-0.001,0.051-0.006,0.077-0.008
	c0.133-0.014,0.265-0.041,0.391-0.091c0.009-0.003,0.019-0.005,0.029-0.009c0.132-0.055,0.256-0.135,0.37-0.23
	c0.011-0.009,0.025-0.012,0.035-0.021c0.008-0.007,0.012-0.017,0.02-0.024c0.107-0.098,0.196-0.209,0.268-0.33
	c0.012-0.02,0.023-0.042,0.034-0.064c0.068-0.128,0.122-0.263,0.149-0.404v-0.001c0.018-0.093,0.028-0.189,0.027-0.287
	c0-0.047-0.01-0.091-0.014-0.137c-0.003-0.027-0.005-0.055-0.009-0.081c-0.022-0.139-0.063-0.275-0.126-0.406
	c-0.004-0.008-0.004-0.018-0.008-0.026c-0.138-0.275-13.407-27.082-1.927-42.997C254.344,140.065,255.104,151.027,264.545,164.251z
	 M272.186,153.851c-2.173,2.141-4.173,4.688-6.005,7.618c-12.006-17.537-7.881-30.274-3.956-36.668
	C261.554,131.431,262.459,142.484,272.186,153.851z M268.051,164.079c-0.008-0.01-0.014-0.02-0.022-0.03
	c0.078-0.133,0.159-0.26,0.238-0.391c0.336,5.796,1.904,20.925,9.142,31.647c-5.622,11.493-6.128,26.803-1.557,46.522
	c-0.218-0.127-0.433-0.247-0.65-0.372c-0.956-1.038-7.505-8.41-12.011-20.098c-6.472-16.79-5.884-34.04,1.748-51.271
	c0.569-1.285,1.166-2.504,1.782-3.677c0.055,0.006,0.108,0.019,0.164,0.019c0.307,0,0.617-0.097,0.882-0.297
	C268.412,165.643,268.54,164.724,268.051,164.079z M253.545,171.948c-6.891-4.147-12.919-6.451-18.085-7.584v-33.849
	c6.051,0.067,12.459,0.292,17.74,0.829C244.433,144.673,250.142,163.417,253.545,171.948z M251.876,174.364l-16.416,0.113v-7.11
	C240.205,168.475,245.667,170.64,251.876,174.364z M235.61,177.406l17.704,55.533c-6.899-1.396-12.914-1.372-17.854-0.725v-54.807
	L235.61,177.406z M254.34,236.156l5.001,15.685c-8.036-0.216-16.075-0.53-23.881-0.902v-15.772
	C240.558,234.457,246.93,234.439,254.34,236.156z M257.696,237.039c5.977,1.744,12.553,4.618,19.626,9.114
	c0.065,0.041,0.136,0.062,0.204,0.092c0.047,0.02,0.092,0.048,0.141,0.063c0.137,0.044,0.28,0.07,0.427,0.072
	c0.005,0,0.009,0.002,0.013,0.002c0.007,0,0.013-0.002,0.019-0.002c0.106-0.002,0.213-0.015,0.32-0.041
	c0.008-0.002,0.016-0.001,0.024-0.003c0.053-0.013,0.101-0.036,0.151-0.055c0.036-0.014,0.075-0.024,0.11-0.04
	c0.087-0.041,0.172-0.091,0.251-0.15c0.003-0.002,0.006-0.003,0.009-0.005c0.081-0.062,0.156-0.134,0.225-0.214
	c0.003-0.004,0.008-0.007,0.012-0.011c0.044-0.052,3.318-3.879,9.033-7.428v13.679c-8.352,0.094-17.062,0.013-25.821-0.194
	L257.696,237.039z M278.907,241.973c-5.23-22.024-4.071-38.281,3.566-49.606c2.47-3.663,4.388-8.362,5.788-12.602v55.256
	C283.956,237.465,280.773,240.178,278.907,241.973z M280.044,190.729c-0.361,0.536-0.704,1.085-1.038,1.641
	c-6.359-10.444-7.607-24.986-7.846-29.618h17.102v5.615C287.981,169.776,285.253,183.005,280.044,190.729z M270.865,159.822
	c1.127-1.487,2.309-2.839,3.55-4.042c0.402,0.041,0.82-0.078,1.141-0.375c0.312-0.288,0.466-0.679,0.467-1.073
	c3.119-2.62,6.559-4.416,10.315-5.347c0.641-0.159,1.281-0.282,1.923-0.389v11.226H270.865z M285.649,146.138
	c-4.122,1.019-7.885,2.952-11.284,5.755c-12.092-14.178-9.441-27.659-8.391-31.334l22.288,0.328v24.743
	C287.393,145.762,286.521,145.921,285.649,146.138z M275.106,108.841c-4.342,2.003-7.649,4.095-9.599,5.448
	c-1.913-13.818,3.086-24.136,7.314-30.106C271.44,89.982,270.914,98.639,275.106,108.841z M266.089,117.629
	c-0.009-0.043-0.016-0.086-0.026-0.13c2.396-1.757,10.82-7.461,22.198-9.991v10.449L266.089,117.629z M284.424,105.379
	c-2.375,0.673-4.594,1.461-6.635,2.295c-6.043-14.802-1.283-26.241,0.126-29.078l10.347-0.259v26.1
	C286.923,104.718,285.64,105.035,284.424,105.379z M236.354,113.1c2.897,0,5.759-0.017,8.468-0.056
	c-0.035,1.807,0.073,3.742,0.37,5.809c-2.189-0.987-5.536-2.056-9.732-2.048v-3.706C235.758,113.1,236.056,113.1,236.354,113.1z
	 M235.46,110.17V97.03l14.703-0.418c-1.931,2.597-4.432,7.097-5.144,13.5C241.98,110.158,238.735,110.175,235.46,110.17z
	 M203.821,171.569c-2.554,0.476-4.997,1.093-7.321,1.837c-0.17,0.025-0.335,0.079-0.487,0.163c-1.097,0.362-2.169,0.748-3.215,1.16
	c-0.2,0.032-0.395,0.104-0.57,0.22c-13.448,5.451-22.56,14.753-27.599,21.15c7.183-25.467,29.659-33.91,35.817-35.772
	c0.499,3.702,1.603,7.469,3.407,11.23C203.842,171.561,203.833,171.564,203.821,171.569z M231.833,177.432l-22.938,51.709
	c-0.767-1.484-1.46-2.941-2.104-4.378c-0.001-0.002-0.002-0.004-0.003-0.006c-5.169-11.538-6.512-21.475-6.407-28.91
	c0.115-8.168,1.925-14.465,3.367-18.22L231.833,177.432z M187.481,180.419c-5.461,6.899-14.099,19.651-15.579,32.807l-8.92-9.701
	C164.998,200.208,173.002,188.229,187.481,180.419z M193.758,177.543c-1.639,3.732-4.022,10.336-5.091,19.064
	c-0.378,3.085-0.597,6.589-0.513,10.435c-6.353,1.039-10.687,3.709-13.263,5.848C177.096,196.418,191.402,180.129,193.758,177.543z
	 M188.278,210.004c0.336,5.463,1.315,11.532,3.299,18.02c0.015,0.05,0.028,0.099,0.043,0.149l-0.403,0.104l-4.424,1.145
	L175.1,216.706C176.706,214.999,180.933,211.305,188.278,210.004z M192.531,230.965c0.067,0.192,0.142,0.387,0.21,0.58
	c0.045,0.125,0.091,0.25,0.136,0.375c0.368,1.019,0.756,2.044,1.177,3.081c0.07,0.172,0.144,0.346,0.216,0.519
	c0.534,1.292,1.105,2.594,1.724,3.91l-2.769-3.012l-0.397-0.432l-2.128-2.314l-0.318-0.347l-1.341-1.458L192.531,230.965z
	 M195.334,230.1c0.147-0.12,0.257-0.272,0.348-0.436c0.079-0.142,0.132-0.295,0.16-0.457c0.034-0.198,0.042-0.402-0.011-0.609
	c-0.165-0.636-0.722-1.058-1.348-1.088c-0.104-0.332-0.194-0.659-0.291-0.988c-0.028-0.095-0.056-0.19-0.084-0.284
	c-3.372-11.538-3.454-21.628-2.55-29.134c1.359-11.286,5.098-19.017,6.144-21.006c1.274-0.399,2.583-0.76,3.928-1.078
	c-1.594,3.684-4.009,10.827-4.176,20.595c-0.137,7.961,1.303,18.653,6.98,31.035c0.015,0.033,0.029,0.066,0.045,0.099
	c0.933,2.029,1.968,4.098,3.141,6.212c0.056,0.168,0.142,0.324,0.255,0.462c1.675,2.982,3.606,6.044,5.817,9.174
	c0.049,0.091,0.107,0.179,0.177,0.261c0.008,0.009,0.017,0.015,0.025,0.023c1.681,2.364,3.521,4.765,5.54,7.201
	c-5.05-0.299-9.908-0.61-14.494-0.923l-0.556-0.605c-3.302-5.166-5.834-10.204-7.768-15.049c-0.057-0.143-0.115-0.286-0.171-0.428
	C196.053,232.077,195.676,231.082,195.334,230.1z M217.008,242.2c2.167-1.538,7.561-4.875,15.522-6.525v15.121
	c-3.066-0.153-6.092-0.314-9.059-0.481C221.091,247.564,218.941,244.856,217.008,242.2z M231.846,232.824
	c-8.452,1.767-14.129,5.261-16.533,6.977c-1.734-2.519-3.285-4.992-4.658-7.407l21.875-49.311v49.605
	C232.301,232.732,232.07,232.777,231.846,232.824z M205.018,174.688c0.072-0.147,0.137-0.277,0.196-0.392
	c1.403-0.239,2.829-0.448,4.304-0.588c0.401-0.039,0.769-0.241,1.017-0.559c0.097-0.124,7.012-8.648,21.995-6.352v7.701
	L205.018,174.688z M220.429,164.253c-6.727,1.644-10.551,5.263-11.775,6.596c-0.599,0.063-1.18,0.151-1.767,0.23
	c-7.712-15.19-2.864-30.616,6.951-40.746c0.285,0.296,0.682,0.46,1.115,0.448c0.152-0.006,8.084-0.318,17.577-0.287v33.333
	C227.588,163.113,223.551,163.491,220.429,164.253z M216.531,127.793c1.421-1.225,2.918-2.345,4.474-3.35
	c4.241-2.738,8.13-4.03,11.525-4.492v7.602C225.536,127.532,219.405,127.699,216.531,127.793z M219.417,121.982
	c-1.433,0.925-2.819,1.942-4.147,3.042c-0.584-2.843-1.167-7.206-0.74-12.161c4.931,0.096,11.411,0.197,18.001,0.227v3.892
	C228.661,117.449,224.229,118.876,219.417,121.982z M214.897,109.94c0.671-4.048,2.084-8.352,4.736-12.461l12.897-0.367v13.049
	C226.103,110.133,219.775,110.035,214.897,109.94z M183.578,230.253l-19.027,4.921c-4.262-10.854-7.06-22.435-8.169-34.498
	L183.578,230.253z M184.451,233.055l1.375-0.356l0.072,0.078l2.133,2.321l0.381,0.414l2.129,2.315l0.46,0.501l9.687,10.535
	c-1.329-0.094-2.63-0.187-3.904-0.281c-0.273-0.385-0.727-0.628-1.251-0.599c-0.385,0.016-0.725,0.182-0.977,0.435
	c-5.284-0.393-10.011-0.77-14.015-1.103c-0.556-0.046-1.099-0.091-1.626-0.136c-1.655-0.139-3.167-0.269-4.524-0.387
	c-0.59-0.052-1.14-0.1-1.669-0.147c-1.202-0.107-2.246-0.201-3.121-0.281c-0.159-0.312-0.324-0.619-0.481-0.932
	c-0.191-0.384-0.385-0.766-0.573-1.152c-0.464-0.954-0.918-1.914-1.359-2.881c-0.525-1.153-1.029-2.316-1.52-3.487L184.451,233.055z
	 M175.611,249.836c0.583,0.051,1.183,0.102,1.813,0.156c4.544,0.386,10.28,0.851,16.889,1.343c0.439,3.097,1.901,9.113,6.674,10.174
	c0.876,0.195,1.947,0.4,3.144,0.63c5.597,1.072,14.964,2.867,18.091,6.737c2.667,3.303,3.757,7.158,4.173,9.179
	c-4.842,0.611-7.557,0.943-15.275,0.065c-7.362-0.838-14.988,0.502-17.535,1.021c-0.066-0.066-0.134-0.131-0.2-0.196
	c-0.75-0.743-1.491-1.495-2.222-2.256c-0.463-0.483-0.919-0.974-1.375-1.463c-0.719-0.774-1.429-1.557-2.129-2.348
	c-0.437-0.495-0.873-0.99-1.303-1.492c-0.688-0.802-1.365-1.612-2.034-2.433c-0.396-0.485-0.791-0.972-1.18-1.464
	c-0.656-0.83-1.303-1.667-1.938-2.513c-0.314-0.417-0.62-0.841-0.929-1.263c-0.625-0.854-1.24-1.715-1.844-2.584
	c-0.247-0.355-0.496-0.708-0.74-1.066c-0.595-0.875-1.18-1.758-1.754-2.649c-0.278-0.432-0.547-0.869-0.82-1.304
	c-0.563-0.898-1.114-1.803-1.655-2.715c-0.245-0.413-0.494-0.824-0.734-1.241c-0.517-0.895-1.023-1.797-1.518-2.705
	C172.468,249.563,173.942,249.694,175.611,249.836z M210.791,281.032c8.111,0.921,11.104,0.545,16.06-0.081l1.417-0.178
	c3.704-0.456,5.489-0.238,8.443,0.124c1.534,0.188,3.444,0.421,6.045,0.603c2.014,0.141,3.766,0.363,5.461,0.577
	c4.689,0.595,9.118,1.156,18.433,0.137c10.635-1.163,11.082-1.068,18.564,0.491c1.208,0.252,2.593,0.541,4.225,0.868
	c5.054,1.01,8.824,1.394,11.823,1.394c3.943-0.001,6.555-0.663,8.993-1.434c3.3-1.042,20.716-4,33.473-0.835
	c2.854,0.708,5.84,1.123,8.81,1.327c0.063,0.008,0.125,0.021,0.188,0.021c0.018,0,0.036-0.007,0.054-0.007
	c4.97,0.32,9.879,0.044,14.065-0.471c-0.635,0.564-1.272,1.126-1.917,1.679c-0.8,0.686-1.607,1.359-2.424,2.024
	c-0.547,0.445-1.094,0.892-1.648,1.329c-0.826,0.649-1.659,1.291-2.502,1.922c-0.86,0.644-1.73,1.274-2.607,1.897
	c-0.856,0.608-1.722,1.204-2.594,1.791c-0.903,0.607-1.815,1.202-2.733,1.787c-0.886,0.563-1.778,1.115-2.68,1.657
	c-0.873,0.525-1.754,1.042-2.641,1.547c-0.912,0.519-1.83,1.027-2.755,1.524c-1.088,0.583-2.186,1.148-3.29,1.701
	c-0.938,0.469-1.882,0.926-2.832,1.371c-0.947,0.445-1.9,0.877-2.859,1.3c-0.959,0.421-1.924,0.829-2.896,1.228
	c-1.105,0.453-2.219,0.891-3.339,1.313c-0.979,0.368-1.964,0.727-2.955,1.071c-1.287,0.449-2.583,0.885-3.89,1.293
	c-0.998,0.312-2.001,0.611-3.009,0.899c-1.588,0.452-3.192,0.866-4.804,1.258c-1.017,0.246-2.036,0.48-3.062,0.702
	c-1.215,0.263-2.436,0.511-3.664,0.738c-1.026,0.19-2.057,0.368-3.093,0.533c-1.419,0.228-2.844,0.435-4.278,0.613
	c-1.036,0.129-2.075,0.247-3.119,0.352c-1.566,0.156-3.144,0.276-4.727,0.376c-1.042,0.064-2.086,0.115-3.134,0.155
	c-1.391,0.053-2.784,0.086-4.186,0.093c-0.011,0.001-0.021,0.001-0.033,0.001c-0.2,0.001-0.4,0.008-0.602,0.008
	c-0.836,0-1.67-0.017-2.503-0.032c-0.011,0-0.022,0-0.033-0.001c-1.399-0.027-2.794-0.073-4.181-0.146
	c-1.048-0.055-2.092-0.12-3.132-0.201c-1.58-0.122-3.15-0.281-4.713-0.462c-1.042-0.119-2.08-0.252-3.114-0.396
	c-1.426-0.2-2.847-0.419-4.258-0.666c-1.033-0.181-2.061-0.375-3.086-0.581c-1.218-0.245-2.432-0.503-3.638-0.783
	c-1.022-0.236-2.039-0.486-3.051-0.748c-1.6-0.414-3.185-0.865-4.76-1.34c-1.004-0.302-2.004-0.617-2.998-0.942
	c-1.292-0.426-2.577-0.863-3.85-1.328c-0.986-0.36-1.967-0.731-2.942-1.114c-1.105-0.436-2.203-0.887-3.294-1.352
	c-0.966-0.412-1.926-0.837-2.879-1.271c-0.945-0.431-1.883-0.873-2.814-1.326c-0.945-0.46-1.883-0.931-2.815-1.414
	c-1.087-0.562-2.163-1.144-3.232-1.735c-0.919-0.512-1.831-1.032-2.737-1.564c-0.869-0.512-1.732-1.033-2.589-1.564
	c-0.894-0.555-1.78-1.119-2.659-1.695c-0.9-0.59-1.791-1.191-2.674-1.803c-0.866-0.599-1.724-1.209-2.574-1.828
	c-0.856-0.625-1.705-1.261-2.546-1.906c-0.835-0.643-1.662-1.294-2.481-1.956c-0.538-0.437-1.075-0.874-1.606-1.318
	c-0.809-0.676-1.608-1.361-2.4-2.057c-0.644-0.567-1.285-1.137-1.917-1.716c-0.301-0.275-0.594-0.56-0.892-0.837
	C199.543,281.099,205.324,280.412,210.791,281.032z M355.077,281.237l8.42-16.178c0.373-0.719,0.095-1.603-0.624-1.976
	c-0.72-0.375-1.603-0.094-1.975,0.623l-9.028,17.346c-2.482-0.212-4.991-0.592-7.438-1.198c-13.548-3.361-31.461-0.251-35.06,0.886
	c-3.135,0.99-7.429,2.346-19.359-0.04c-1.623-0.324-3-0.612-4.201-0.862c-7.794-1.627-8.643-1.722-19.482-0.536
	c-8.969,0.981-13.234,0.441-17.746-0.131c-1.735-0.22-3.529-0.446-5.624-0.593c-2.526-0.177-4.315-0.395-5.894-0.589
	c-2.692-0.33-4.583-0.562-7.748-0.275c-0.435-2.263-1.643-6.747-4.817-10.677c-3.801-4.705-13.44-6.552-19.818-7.775
	c-1.166-0.223-2.208-0.422-3.061-0.612c-2.631-0.584-3.844-4.324-4.317-7.094c2.137,0.155,4.361,0.312,6.646,0.469
	c0.106,0.024,0.215,0.039,0.324,0.039c0.035,0,0.07-0.007,0.105-0.01c5.654,0.387,11.723,0.772,18.066,1.133
	c0.111,0.026,0.225,0.043,0.339,0.043c0.055,0,0.109-0.009,0.164-0.015c3.25,0.184,6.569,0.361,9.938,0.527
	c0.269,0.314,0.663,0.517,1.108,0.517c0.396,0,0.754-0.159,1.017-0.414c8.529,0.408,17.342,0.747,26.132,0.965
	c0.075,0.012,0.147,0.036,0.224,0.036c0.056,0,0.112-0.02,0.168-0.026c22.763,0.555,45.302,0.288,62.151-1.717
	c0.021-0.003,0.045-0.005,0.066-0.008c2.082-0.248,4.086-0.52,5.983-0.824c9.442-1.502,12.272-9.893,12.388-10.249
	c0.008-0.026,0.017-0.052,0.023-0.078c0.015-0.056,1.568-5.606,8.824-5.606c5,0,16.701-0.739,34.788-2.195
	c-1.583,4.942-3.594,9.967-4.476,10.621c-1.234,0.538-10.073,1.075-17.971,1.289c-1.129-0.211-5.946-0.746-9.958,4.47
	c-0.781,1.014-1.362,1.875-1.874,2.635c-1.949,2.887-2.354,3.488-8.584,3.488c-2.073,0-7.813,0.22-15.755,0.525
	c-26,0.997-74.396,2.854-96.574,1.055c-0.83-0.067-1.512,0.536-1.578,1.342c-0.066,0.806,0.535,1.513,1.341,1.579
	c6.787,0.55,15.983,0.761,26.231,0.761c23.507,0,52.543-1.114,70.691-1.81c7.911-0.303,13.626-0.522,15.644-0.522
	c7.411,0,8.616-1.228,11.012-4.78c0.489-0.724,1.042-1.545,1.769-2.488c3.257-4.235,6.993-3.403,7.136-3.368
	c0.133,0.034,0.268,0.052,0.407,0.046c1.6-0.042,4.693-0.137,7.961-0.303c-1.934,4.623-4.335,8.693-5.341,8.951
	c-0.395,0.027-9.682,0.677-11.891,3.516c-0.382,0.492-0.725,1.058-1.088,1.657c-1.029,1.698-2.092,3.454-4.178,3.918
	c-2.492,0.554-21.208,0.988-33.181,1.146c-0.808,0.011-1.456,0.675-1.444,1.484c0.011,0.803,0.664,1.445,1.464,1.445h0.02
	c3.079-0.041,30.188-0.419,33.776-1.217c3.307-0.734,4.892-3.35,6.049-5.259c0.317-0.524,0.617-1.02,0.895-1.376
	c0.721-0.926,5.562-2.111,9.772-2.392c3.277-0.219,6.594-7.447,8.384-12.061c3.688-0.245,7.033-0.59,8.077-1.064
	c2.414-1.098,5.237-9.559,6.705-14.505c0.003-0.01,0.003-0.021,0.005-0.032c0.028-0.103,0.048-0.207,0.054-0.312
	c0-0.003,0.001-0.005,0.001-0.008c0.005-0.109-0.006-0.218-0.024-0.325c-0.006-0.033-0.018-0.066-0.027-0.1
	c-0.013-0.052-0.021-0.104-0.041-0.155c-0.058-0.154-5.807-15.645-7.5-35.558c-1.508-17.743,0.013-42.641,15.36-61.837
	c7.87,16.492,12.283,34.937,12.283,54.395c0,19.074-4.244,37.172-11.823,53.413c-0.449,0.962-0.91,1.917-1.382,2.866
	c-0.199,0.4-0.395,0.803-0.597,1.201c-0.483,0.944-0.977,1.882-1.481,2.813c-0.21,0.385-0.428,0.766-0.641,1.149
	c-0.517,0.926-1.043,1.845-1.58,2.756c-0.254,0.43-0.504,0.861-0.763,1.287c-0.549,0.906-1.107,1.805-1.678,2.696
	c-0.286,0.446-0.582,0.886-0.873,1.328c-0.582,0.884-1.174,1.76-1.776,2.628c-0.258,0.369-0.509,0.741-0.769,1.107
	c-0.613,0.862-1.235,1.716-1.868,2.561c-0.322,0.432-0.653,0.854-0.981,1.28c-0.645,0.838-1.298,1.668-1.962,2.489
	c-0.405,0.5-0.812,0.999-1.225,1.494c-0.676,0.81-1.361,1.611-2.058,2.404c-0.446,0.509-0.894,1.017-1.347,1.519
	c-0.709,0.781-1.426,1.555-2.152,2.318c-0.472,0.496-0.952,0.983-1.432,1.472c-0.739,0.751-1.487,1.494-2.244,2.227
	c0,0.001,0,0.001,0,0.001C366.707,280.737,361.094,281.423,355.077,281.237z M282.847,8.146l24.268,51.94
	c-7.953-1.511-16.154-2.311-24.54-2.311c-8.176,0-16.177,0.758-23.944,2.196L282.847,8.146z M279.018,4.528l-26.506,56.727
	c-48.052,11.307-85.996,49.1-97.528,97.065l-56.87,26.573C100.278,86.223,180.279,6.406,279.018,4.528z M153.559,212.943
	l-51.832-24.219l51.939-24.269c-1.511,7.953-2.311,16.154-2.311,24.54C151.355,197.174,152.119,205.176,153.559,212.943z
	 M111.888,349.928c-1.739-0.893-3.474-1.797-5.201-2.719l32.593-33.983c0.296-0.004,0.579-0.063,0.837-0.172
	c0.782,0.897,1.571,1.787,2.369,2.67L111.888,349.928z M144.627,318.037c0.954,1.019,1.919,2.027,2.895,3.024l-27.447,32.947
	c-1.772-0.854-3.542-1.715-5.301-2.599L144.627,318.037z M134.929,313.229l-31.106,32.434c-1.59-0.867-3.173-1.747-4.752-2.637
	l30.509-29.797H134.929z M125.089,313.229l-28.857,28.184c-1.464-0.842-2.919-1.702-4.373-2.565l27.911-25.618H125.089z
	 M115.13,313.229L89.046,337.17c-1.612-0.977-3.214-1.975-4.813-2.978l24.401-20.964H115.13z M103.819,313.229l-22.374,19.222
	c-1.577-1.008-3.141-2.043-4.706-3.076l20.071-16.146H103.819z M91.803,313.229l-17.809,14.326
	c-1.501-1.009-2.993-2.034-4.481-3.067l14.928-11.259H91.803z M79.231,313.229l-12.42,9.366c-1.53-1.081-3.057-2.168-4.575-3.273
	l8.631-6.093H79.231z M65.426,313.229l-5.844,4.125c-1.831-1.358-3.654-2.73-5.465-4.125H65.426z M53.91,371.916
	c-7.473-5.008-7.877-13.647-3.722-19.848c4.155-6.2,12.56-8.936,19.772-4.104c5.383,3.608,7.112,9.637,4.76,13.923l-3.785-2.535
	c1.117-2.515-0.063-5.905-3.228-8.026c-4.894-3.28-10.673-1.148-13.669,3.323c-2.996,4.47-3.031,10.45,2.613,14.232
	c3.883,2.604,7.862,1.675,10.199-0.823l-4.372-2.932l2.252-3.361l10.866,7.282l-2.252,3.361l-2.512-1.684
	C66.386,375.169,60.24,376.157,53.91,371.916z M72.044,382.671l14.048-23.645l3.682,2.188l-14.048,23.644L72.044,382.671z
	 M89.635,389.132c2.14,1.16,3.493,0.644,4.561-0.253l3.798,2.061c-1.947,2.518-5.954,3.562-10.064,1.335
	c-5.421-2.941-6.023-8.093-3.458-12.824c2.621-4.834,7.454-6.907,12.53-4.154c4.178,2.267,5.756,7.188,3.527,11.298
	c-0.299,0.553-0.711,1.312-1.446,2.255l-11.499-6.236C86.501,385.02,86.492,387.428,89.635,389.132z M120.434,395.757l-4.653,9.836
	l-3.871-1.83l4.048-8.559c1.344-2.84,1.552-5.393-1.217-6.703c-2.699-1.277-5.003,0.285-6.346,3.125l-4.048,8.559l-3.871-1.831
	l7.828-16.548l3.871,1.831l-1.092,2.309c1.869-1.288,4.24-1.34,6.69-0.182c2.38,1.125,3.646,2.768,3.913,4.59
	C121.916,391.983,121.509,393.485,120.434,395.757z M128.264,357.845c-1.763-0.798-3.524-1.604-5.276-2.431l26.754-32.116
	c0.998,0.988,2.006,1.966,3.026,2.932L128.264,357.845z M223.813,386.269c-2.603-0.404-5.199-0.835-7.788-1.293l5.202-17.214
	c2.212,0.762,4.443,1.479,6.691,2.158L223.813,386.269z M230.928,370.818c2.618,0.745,5.263,1.425,7.926,2.058l-2.961,15.075
	c-2.997-0.365-5.988-0.756-8.967-1.193L230.928,370.818z M212.916,384.418c-2.364-0.438-4.721-0.904-7.072-1.388l6.522-18.572
	c1.951,0.784,3.917,1.539,5.899,2.258L212.916,384.418z M202.743,382.387c-2.156-0.463-4.308-0.938-6.452-1.439l7.955-19.969
	c1.724,0.788,3.46,1.553,5.211,2.29L202.743,382.387z M193.212,380.198c-2.464-0.597-4.92-1.22-7.369-1.867l9.751-21.583
	c1.917,0.998,3.851,1.966,5.805,2.899L193.212,380.198z M182.772,377.507c-2.157-0.591-4.306-1.205-6.45-1.834l11.62-23.134
	c1.61,0.936,3.233,1.851,4.872,2.739L182.772,377.507z M173.26,374.779c-2.285-0.692-4.561-1.408-6.831-2.146l13.816-24.812
	c1.646,1.063,3.309,2.103,4.99,3.116L173.26,374.779z M163.401,371.623c-2.289-0.765-4.571-1.55-6.844-2.359l16.264-26.494
	c1.58,1.132,3.18,2.236,4.796,3.32L163.401,371.623z M153.544,368.174c-1.735-0.635-3.464-1.285-5.189-1.945l18.514-27.904
	c1.127,0.875,2.263,1.739,3.409,2.589L153.544,368.174z M145.357,365.073c-2.017-0.794-4.025-1.611-6.029-2.44l21.221-29.44
	c1.27,1.076,2.553,2.136,3.852,3.179L145.357,365.073z M136.349,361.4c-1.719-0.729-3.428-1.48-5.136-2.236l23.861-30.787
	c1.018,0.934,2.048,1.853,3.087,2.761L136.349,361.4z M146.046,417.661l4.042-10.904l-10.647-3.946l-4.042,10.903l-4.236-1.57
	l9.559-25.787l4.237,1.57l-4.111,11.089l10.647,3.946l4.11-11.088l4.237,1.57l-9.56,25.787L146.046,417.661z M172.612,426.125
	l-4.1-1.237l0.738-2.445c-1.658,1.553-3.996,1.954-6.59,1.172c-2.521-0.761-4.015-2.196-4.551-3.959
	c-0.468-1.577-0.288-3.123,0.438-5.53l3.144-10.417l4.099,1.237l-2.735,9.062c-0.908,3.009-0.735,5.564,2.198,6.45
	c2.858,0.862,4.905-1.024,5.812-4.032l2.736-9.063l4.099,1.237L172.612,426.125z M198.097,421.259l-2.545,10.58l-4.163-1.002
	l2.214-9.204c0.735-3.056,0.416-5.597-2.563-6.313c-2.902-0.698-4.838,1.301-5.572,4.356l-2.215,9.205l-4.163-1.002l4.281-17.798
	l4.163,1.002l-0.597,2.481c1.567-1.643,3.878-2.179,6.514-1.545c2.558,0.616,4.133,1.965,4.768,3.693
	C198.776,417.261,198.685,418.815,198.097,421.259z M213.733,420.37l-4.127-0.793l-1.424,7.406c-0.6,3.124,0.29,3.695,1.949,4.014
	c0.655,0.125,1.712,0.249,2.15,0.253l-0.711,3.703c-0.678-0.011-1.935-0.132-3.169-0.369c-2.044-0.393-5.772-1.39-4.609-7.445
	l1.61-8.37l-3.048-0.586l0.675-3.511l3.047,0.587l1.045-5.439l4.205,0.809l-1.045,5.438l4.127,0.793L213.733,420.37z M219.921,436.3
	l-4.226-0.68l4.369-27.147l4.227,0.682L219.921,436.3z M243.016,440.888c-0.32,2.692-1.336,4.589-2.975,5.74
	c-1.641,1.15-3.904,1.555-6.713,1.222l0.009-0.078c-2.419-0.287-4.452-1.161-5.825-2.59c-1.374-1.429-2.088-3.413-1.831-5.914
	l4.292,0.508c-0.115,2.639,1.605,4.147,3.829,4.411c2.614,0.311,4.558-0.409,4.961-3.803l0.495-4.175
	c-1.362,1.816-3.594,2.62-6.286,2.301c-2.615-0.31-4.337-1.464-5.171-3.105c-0.736-1.472-0.828-3.026-0.532-5.523l1.281-10.808
	l4.252,0.506l-1.114,9.401c-0.37,3.121,0.245,5.608,3.288,5.968c2.965,0.353,4.652-1.86,5.022-4.982l1.115-9.402l4.253,0.504
	L243.016,440.888z M246.252,389.061c-2.416-0.229-4.826-0.479-7.231-0.751l2.894-14.737c2.138,0.47,4.287,0.91,6.451,1.307
	L246.252,389.061z M257.383,389.956c-2.673-0.173-5.341-0.374-8.002-0.603l2.078-13.938c2.408,0.4,4.827,0.767,7.265,1.076
	L257.383,389.956z M252.12,370.98c-1.033-0.172-2.065-0.349-3.093-0.537c-2.095-0.388-4.177-0.813-6.248-1.271
	c-1.023-0.226-2.043-0.458-3.06-0.701c-2.586-0.616-5.155-1.279-7.698-2.005c-1.009-0.288-2.009-0.593-3.01-0.897
	c-2.179-0.662-4.342-1.361-6.486-2.102c-0.99-0.342-1.979-0.688-2.962-1.046c-1.92-0.7-3.822-1.436-5.711-2.196
	c-0.972-0.393-1.944-0.783-2.908-1.19c-1.693-0.716-3.369-1.463-5.036-2.227c-0.953-0.438-1.903-0.88-2.847-1.332
	c-1.892-0.907-3.763-1.852-5.618-2.82c-0.93-0.485-1.86-0.969-2.78-1.47c-1.584-0.862-3.149-1.755-4.705-2.66
	c-0.906-0.529-1.811-1.061-2.707-1.604c-1.624-0.983-3.229-1.996-4.82-3.027c-0.88-0.571-1.758-1.146-2.628-1.731
	c-1.561-1.051-3.103-2.128-4.63-3.226c-0.853-0.612-1.702-1.229-2.543-1.855c-1.103-0.821-2.194-1.656-3.278-2.5
	c-0.828-0.646-1.647-1.302-2.464-1.962c-1.25-1.009-2.488-2.034-3.712-3.075c-0.8-0.68-1.594-1.367-2.382-2.061
	c-0.997-0.878-1.986-1.765-2.964-2.663c-0.774-0.711-1.545-1.424-2.307-2.147c-0.979-0.932-1.946-1.876-2.905-2.829
	c-0.745-0.739-1.48-1.491-2.213-2.244c-0.937-0.963-1.863-1.936-2.778-2.917c-0.717-0.77-1.43-1.54-2.134-2.321
	c-0.87-0.966-1.733-1.938-2.583-2.922c-0.688-0.796-1.364-1.602-2.038-2.409c-0.741-0.888-1.471-1.786-2.195-2.688
	c-0.659-0.819-1.312-1.644-1.957-2.475c-0.634-0.817-1.269-1.634-1.89-2.463c-0.631-0.842-1.246-1.696-1.863-2.549
	c-0.674-0.934-1.339-1.873-1.996-2.818c-0.6-0.864-1.198-1.729-1.784-2.604c-0.617-0.922-1.23-1.847-1.831-2.778
	c-0.57-0.885-1.125-1.78-1.681-2.675c-0.542-0.875-1.079-1.755-1.607-2.641c-0.54-0.902-1.08-1.806-1.605-2.719
	c-0.52-0.905-1.025-1.819-1.53-2.733c-0.508-0.922-1.007-1.85-1.501-2.78c-13.11-24.737-20.747-52.793-21.315-82.551l56.731,26.507
	c2.045,8.68,4.944,17.035,8.62,24.961c0.447,0.963,0.905,1.92,1.374,2.87c0.212,0.428,0.422,0.857,0.638,1.282
	c0.48,0.946,0.971,1.886,1.474,2.818c0.222,0.414,0.449,0.825,0.676,1.236c0.512,0.928,1.036,1.849,1.57,2.763
	c0.268,0.458,0.537,0.914,0.81,1.369c0.545,0.908,1.102,1.809,1.669,2.703c0.301,0.476,0.607,0.948,0.914,1.419
	c0.578,0.887,1.167,1.767,1.766,2.638c0.272,0.396,0.545,0.791,0.821,1.183c0.609,0.866,1.228,1.724,1.856,2.573
	c0.34,0.46,0.684,0.916,1.03,1.371c0.64,0.842,1.29,1.675,1.949,2.501c0.425,0.531,0.848,1.064,1.28,1.589
	c0.672,0.815,1.354,1.622,2.045,2.42c0.467,0.54,0.943,1.07,1.419,1.603c0.703,0.787,1.416,1.564,2.138,2.335
	c0.495,0.527,0.993,1.049,1.496,1.567c0.734,0.758,1.477,1.507,2.229,2.245c0.505,0.497,1.008,0.994,1.521,1.482
	c0.763,0.727,1.535,1.445,2.315,2.154c0.679,0.614,1.365,1.222,2.056,1.823c0.794,0.691,1.596,1.374,2.407,2.046
	c0.574,0.477,1.155,0.943,1.737,1.409c0.821,0.658,1.65,1.307,2.487,1.945c0.894,0.681,1.796,1.352,2.707,2.012
	c0.852,0.616,1.712,1.223,2.579,1.818c0.938,0.645,1.884,1.279,2.84,1.899c0.881,0.572,1.769,1.135,2.664,1.687
	c0.911,0.561,1.828,1.111,2.753,1.65c0.907,0.528,1.821,1.047,2.741,1.555c1.13,0.623,2.266,1.235,3.416,1.825
	c0.933,0.479,1.872,0.945,2.818,1.403c0.989,0.478,1.984,0.944,2.986,1.397c0.955,0.433,1.916,0.854,2.883,1.264
	c1.152,0.488,2.315,0.955,3.483,1.411c0.976,0.381,1.957,0.751,2.944,1.109c1.34,0.485,2.693,0.945,4.054,1.39
	c0.995,0.324,1.995,0.636,3,0.938c1.65,0.493,3.31,0.963,4.986,1.393c0.574,0.147,1.152,0.282,1.728,0.421l26.585,56.898
	c-1.744-0.036-3.485-0.085-5.217-0.173c-1.047-0.054-2.089-0.129-3.132-0.199c-2.574-0.174-5.133-0.401-7.677-0.682
	c-1.041-0.113-2.082-0.226-3.118-0.356C256.803,371.729,254.456,371.37,252.12,370.98z M280.038,377.958v12.786
	c-2.596-0.016-5.187-0.055-7.773-0.122l0.616-12.877C275.254,377.865,277.642,377.926,280.038,377.958z M269.75,377.545
	l-0.621,12.979c-2.876-0.099-5.747-0.226-8.61-0.388l1.324-13.29C264.462,377.134,267.098,377.367,269.75,377.545z M270.172,432.737
	l-5.34-0.188l-0.292,8.244l-4.516-0.16L261,413.148l9.856,0.35c5.888,0.21,9.54,4.782,9.355,9.965
	C280.028,428.645,276.062,432.946,270.172,432.737z M282.323,370.211l-24.459-52.345c0.704,0.135,1.407,0.271,2.115,0.395
	c1.483,0.26,2.976,0.488,4.475,0.696c1.034,0.145,2.072,0.275,3.114,0.395c1.639,0.188,3.285,0.354,4.942,0.48
	c1.041,0.079,2.085,0.146,3.132,0.199c1.459,0.076,2.925,0.123,4.396,0.151c0.011,0,0.022,0,0.033,0
	c0.833,0.016,1.667,0.031,2.503,0.031c0.201,0,0.401-0.007,0.602-0.007c0.012,0,0.022-0.001,0.033-0.001
	c1.473-0.007,2.938-0.042,4.399-0.098c1.048-0.04,2.093-0.091,3.134-0.156c1.661-0.102,3.314-0.228,4.958-0.392
	c1.043-0.104,2.082-0.223,3.118-0.352c1.507-0.187,3.005-0.401,4.495-0.639c1.035-0.165,2.066-0.342,3.094-0.531
	c0.271-0.05,0.537-0.11,0.806-0.162L282.323,370.211z M283.209,377.982c2.398-0.008,4.784-0.068,7.16-0.165l0.615,12.848
	c-2.587,0.058-5.179,0.087-7.775,0.093V377.982z M293.984,426.556c-3.652,0.059-5.622,2.173-5.548,6.729l0.129,7.896l-4.281,0.068
	l-0.298-18.303l4.281-0.069l0.048,2.945c0.797-1.702,3.168-3.233,5.604-3.273c0.668-0.011,1.219,0.06,1.693,0.248l0.063,3.928
	C295.006,426.578,294.652,426.544,293.984,426.556z M293.503,377.667c2.655-0.153,5.298-0.353,7.923-0.614l1.311,13.158
	c-2.866,0.151-5.737,0.271-8.615,0.357L293.503,377.667z M297.496,415.992c-0.074-1.766,1.276-3.24,3.005-3.315
	c1.765-0.075,3.239,1.276,3.315,3.043c0.075,1.728-1.277,3.201-3.044,3.276C299.046,419.072,297.571,417.719,297.496,415.992z
	 M299.596,440.911l-0.79-18.29l4.278-0.185l0.789,18.29L299.596,440.911z M300.981,372.591c-2.549,0.253-5.114,0.448-7.692,0.598
	c-1.042,0.06-2.087,0.107-3.134,0.15c-1.276,0.053-2.556,0.089-3.839,0.117l27.062-56.903c1.675-0.403,3.34-0.833,4.987-1.301
	c1.008-0.286,2.012-0.585,3.01-0.895c1.376-0.427,2.739-0.88,4.096-1.352c0.99-0.344,1.977-0.697,2.957-1.064
	c1.184-0.443,2.357-0.904,3.525-1.38c0.973-0.396,1.938-0.805,2.897-1.223c1.018-0.443,2.027-0.899,3.031-1.369
	c0.951-0.443,1.896-0.897,2.834-1.363c1.169-0.58,2.326-1.176,3.475-1.788c0.926-0.495,1.846-1.001,2.759-1.518
	c0.942-0.532,1.878-1.075,2.805-1.632c0.902-0.539,1.797-1.089,2.685-1.649c0.974-0.615,1.94-1.242,2.898-1.883
	c0.873-0.584,1.739-1.179,2.599-1.782c0.932-0.656,1.855-1.322,2.769-2.002c0.844-0.627,1.681-1.265,2.508-1.911
	c0.599-0.468,1.189-0.944,1.779-1.421c0.818-0.662,1.627-1.333,2.429-2.015c0.71-0.603,1.413-1.214,2.109-1.832
	c0.788-0.697,1.567-1.405,2.338-2.123c0.528-0.49,1.055-0.983,1.576-1.483c0.759-0.73,1.51-1.469,2.252-2.217
	c0.519-0.524,1.035-1.052,1.545-1.583c0.73-0.762,1.451-1.53,2.162-2.309c0.492-0.538,0.976-1.084,1.46-1.631
	c0.698-0.79,1.388-1.588,2.068-2.395c0.447-0.532,0.894-1.066,1.334-1.605c0.667-0.818,1.324-1.643,1.972-2.477
	c0.361-0.465,0.719-0.931,1.073-1.398c0.637-0.843,1.263-1.693,1.88-2.551c0.289-0.402,0.575-0.808,0.858-1.213
	c0.607-0.864,1.204-1.737,1.79-2.617c0.321-0.482,0.643-0.965,0.957-1.452c0.574-0.887,1.14-1.782,1.692-2.684
	c0.286-0.466,0.567-0.936,0.847-1.406c0.542-0.908,1.073-1.823,1.595-2.745c0.238-0.424,0.478-0.847,0.713-1.274
	c0.509-0.927,1.008-1.86,1.496-2.801c0.228-0.439,0.45-0.88,0.674-1.322c0.477-0.945,0.941-1.897,1.396-2.855
	c3.813-8.039,6.822-16.529,8.948-25.36l56.865-26.57c-0.659,29.947-8.476,58.159-21.822,82.982c-0.499,0.928-1.01,1.848-1.522,2.767
	c-0.52,0.925-1.041,1.848-1.575,2.764c-0.53,0.91-1.063,1.817-1.608,2.717c-0.543,0.896-1.1,1.78-1.657,2.666
	c-0.561,0.89-1.128,1.776-1.704,2.657c-0.615,0.943-1.234,1.883-1.867,2.813c-0.592,0.87-1.192,1.733-1.799,2.594
	c-0.673,0.954-1.357,1.897-2.048,2.839c-0.622,0.848-1.25,1.69-1.887,2.527c-0.635,0.838-1.27,1.675-1.92,2.499
	c-0.65,0.826-1.314,1.641-1.978,2.455c-0.74,0.908-1.491,1.809-2.249,2.702c-0.68,0.802-1.363,1.601-2.056,2.392
	c-0.868,0.988-1.743,1.972-2.631,2.942c-0.709,0.775-1.425,1.543-2.146,2.307c-0.935,0.985-1.881,1.96-2.834,2.926
	c-0.739,0.747-1.486,1.483-2.237,2.219c-0.977,0.954-1.963,1.899-2.961,2.832c-0.767,0.718-1.534,1.434-2.313,2.138
	c-0.996,0.901-1.998,1.793-3.013,2.672c-0.793,0.688-1.599,1.359-2.403,2.033c-1.244,1.04-2.499,2.066-3.77,3.074
	c-0.822,0.652-1.652,1.292-2.485,1.93c-1.101,0.843-2.211,1.673-3.331,2.491c-0.847,0.619-1.694,1.235-2.553,1.84
	c-1.548,1.091-3.116,2.155-4.698,3.2c-0.875,0.577-1.752,1.152-2.637,1.715c-1.611,1.024-3.241,2.021-4.885,2.995
	c-0.902,0.535-1.805,1.067-2.716,1.587c-1.573,0.898-3.164,1.769-4.767,2.621c-0.925,0.492-1.85,0.983-2.783,1.46
	c-1.875,0.956-3.771,1.873-5.682,2.768c-0.948,0.443-1.899,0.884-2.855,1.311c-1.683,0.752-3.38,1.476-5.088,2.178
	c-0.968,0.398-1.937,0.795-2.913,1.178c-1.904,0.745-3.826,1.452-5.762,2.137c-0.986,0.348-1.974,0.692-2.968,1.024
	c-2.159,0.723-4.337,1.401-6.531,2.043c-1.003,0.294-2.01,0.578-3.02,0.855c-2.559,0.702-5.136,1.356-7.736,1.949
	c-1.019,0.232-2.041,0.454-3.067,0.67c-2.079,0.436-4.172,0.837-6.275,1.203c-1.03,0.179-2.062,0.353-3.097,0.515
	c-2.343,0.366-4.702,0.68-7.072,0.956C303.062,372.367,302.024,372.488,300.981,372.591z M399.508,337.37
	c1.319-1.042,2.621-2.103,3.911-3.179l20.823,28.891c-2.015,0.826-4.035,1.636-6.063,2.426L399.508,337.37z M415.181,366.664
	c-1.735,0.658-3.477,1.298-5.221,1.93l-16.402-26.722c1.164-0.847,2.317-1.707,3.462-2.58L415.181,366.664z M378.448,351.804
	c1.7-1.005,3.386-2.031,5.052-3.089l13.529,24.297c-2.28,0.731-4.565,1.443-6.86,2.131L378.448,351.804z M387.105,376.034
	c-2.153,0.624-4.312,1.228-6.478,1.812l-9.829-21.756c1.658-0.879,3.304-1.777,4.932-2.704L387.105,376.034z M354.029,363.95
	c1.766-0.724,3.521-1.471,5.26-2.246l7.783,19.535c-2.151,0.494-4.305,0.978-6.468,1.434L354.029,363.95z M357.497,383.297
	c-2.357,0.477-4.722,0.932-7.092,1.362l-5.24-17.336c1.998-0.703,3.983-1.434,5.95-2.201L357.497,383.297z M336.368,386.944
	c-2.985,0.426-5.98,0.811-8.983,1.166l-2.908-14.81c2.677-0.607,5.331-1.278,7.964-2L336.368,386.944z M324.257,388.468
	c-2.408,0.266-4.822,0.504-7.242,0.723l-2.084-13.982c2.172-0.377,4.333-0.788,6.479-1.239L324.257,388.468z M304.544,376.706
	c2.443-0.284,4.875-0.605,7.29-0.983l2.051,13.755c-2.664,0.218-5.336,0.408-8.012,0.571L304.544,376.706z M333.505,438.332
	l-0.992-10.203c-0.282-2.893-1.477-4.631-3.862-4.399c-2.15,0.209-3.701,1.702-3.279,6.041l0.901,9.266l-4.261,0.415l-0.997-10.243
	c-0.282-2.893-1.395-4.599-3.779-4.368c-2.15,0.21-3.779,1.71-3.357,6.049l0.901,9.267l-4.262,0.415l-1.772-18.219l4.261-0.415
	l0.248,2.541c0.618-1.757,2.404-3.271,4.789-3.505c3.322-0.322,5.104,0.963,6.062,2.687c0.682-1.921,2.695-3.538,5.275-3.789
	c5.473-0.533,6.933,3.114,7.264,6.515l1.123,11.532L333.505,438.332z M335.461,370.449c2.264-0.66,4.509-1.36,6.735-2.104
	l5.099,16.871c-2.596,0.449-5.197,0.872-7.808,1.267L335.461,370.449z M357.834,434.569l-0.415-2.438
	c-0.813,2.011-2.991,3.497-5.082,3.853c-5.5,0.938-10.002-2.8-10.872-7.912c-0.87-5.111,2.141-10.128,7.641-11.063
	c2.092-0.356,4.639,0.326,6.071,1.955l-0.415-2.44l4.221-0.719l3.073,18.048L357.834,434.569z M375.037,416.147
	c-3.568,0.789-5.074,3.255-4.091,7.705l1.706,7.711l-4.183,0.924l-3.952-17.877l4.181-0.924l0.637,2.877
	c0.44-1.828,2.458-3.804,4.837-4.329c0.652-0.146,1.206-0.187,1.709-0.097l0.849,3.836
	C376.043,415.963,375.689,416.001,375.037,416.147z M370.161,380.514l-8.015-20.117c1.973-0.92,3.932-1.866,5.867-2.852
	l9.544,21.124C375.1,379.31,372.635,379.924,370.161,380.514z M399.985,432.529c-1.091,1.681-3.037,2.901-5.768,3.644l-0.02-0.076
	c-2.352,0.64-4.563,0.59-6.371-0.222c-1.809-0.811-3.212-2.383-3.91-4.799l4.169-1.134c0.881,2.488,3.04,3.244,5.201,2.656
	c2.54-0.689,4.074-2.084,3.178-5.382l-1.104-4.056c-0.583,2.193-2.353,3.773-4.969,4.484c-2.539,0.691-4.567,0.266-5.956-0.944
	c-1.232-1.091-1.899-2.496-2.56-4.922l-2.855-10.5l4.133-1.124l2.483,9.136c0.825,3.033,2.325,5.107,5.282,4.304
	c2.881-0.784,3.617-3.467,2.793-6.5l-2.485-9.135l4.134-1.124l5.234,19.257C401.308,428.708,401.075,430.847,399.985,432.529z
	 M400.07,372.026l-13.93-25.02c1.637-1.077,3.259-2.176,4.859-3.302l15.947,25.979C404.663,370.488,402.37,371.265,400.07,372.026z
	 M424.246,417.281c-4.69,1.703-10.094-0.056-12.199-5.854l4.247-1.542c1.22,3.361,4.021,4.518,6.941,3.458
	c2.362-0.857,3.696-3.057,2.852-5.383c-0.953-2.622-3.587-2.627-5.588-2.611c-5.331,0.055-9.658-0.004-11.534-5.175
	c-1.556-4.283,1.118-8.432,5.439-10c4.652-1.689,9.428,0.296,11.172,5.098l-4.247,1.542c-0.925-2.549-3.033-3.747-5.435-2.876
	c-2.104,0.764-3.475,2.516-2.683,4.694c0.763,2.105,2.973,2.433,5.148,2.437c4.548-0.021,10.003-0.079,11.799,4.87
	C432.09,411.255,429.047,415.538,424.246,417.281z M427.228,361.857l-21.406-29.698c1.057-0.911,2.101-1.835,3.137-2.77
	l23.434,30.236C430.674,360.378,428.956,361.13,427.228,361.857z M445.489,408.681c-5.492,2.345-10.24-0.669-12.199-5.258
	c-1.944-4.553-0.853-10.103,4.604-12.433c5.491-2.346,9.151,0.022,10.794,3.167l-3.939,1.682c-1.003-1.751-2.612-2.516-5.287-1.374
	c-3.035,1.296-3.452,4.421-2.232,7.276c1.233,2.891,3.656,4.762,7.054,3.312c2.312-0.987,2.82-2.401,2.6-4.314l3.939-1.682
	C451.776,402.793,450.367,406.598,445.489,408.681z M469.516,396.972l-4.193-8.488c-1.392-2.818-3.263-4.566-6.011-3.209
	c-2.677,1.321-2.884,4.096-1.492,6.914l4.193,8.489l-3.84,1.896l-12.177-24.656l3.839-1.896l5.202,10.531
	c0.15-2.266,1.583-4.156,4.014-5.356c2.36-1.166,4.433-1.137,6.027-0.217c1.419,0.834,2.344,2.085,3.458,4.34l4.817,9.757
	L469.516,396.972z M486.39,388.429c-5.058,2.866-10.562,0.882-13.118-3.63c-2.556-4.513-1.429-10.252,3.631-13.119
	c5.128-2.904,10.631-0.92,13.187,3.592S491.518,385.524,486.39,388.429z M506.305,376.393c-4.889,3.147-10.495,1.478-13.303-2.883
	c-2.807-4.36-2.006-10.157,2.883-13.304c4.955-3.19,10.562-1.521,13.369,2.84C512.062,367.407,511.261,373.203,506.305,376.393z
	 M518.328,367.788l-15.818-22.495l3.503-2.464l15.817,22.495L518.328,367.788z"/>
<path d="M252.583,484.705c-3.486-0.289-6.022,2.412-6.305,5.813c-0.281,3.401,1.775,6.483,5.262,6.772
	c3.572,0.296,6.107-2.404,6.389-5.806C258.212,488.083,256.155,485.001,252.583,484.705z"/>
<path d="M326.458,491.915c-0.252-3.277-2.677-5.872-6.08-5.61c-3.361,0.258-5.318,3.189-5.067,6.467l0.766,9.956
	c0.251,3.276,2.634,5.875,5.996,5.617c3.403-0.262,5.403-3.198,5.152-6.473L326.458,491.915z"/>
<path d="M378.422,463.207c-62.083,12.779-127.617,12.779-189.697,0l-10.288,48.745
	c34.293,7.956,69.655,11.988,105.137,11.988c35.481,0,70.842-4.032,105.136-11.988L378.422,463.207z M234.077,510.493l-5.321-0.771
	l-8.655-22.728l-3.045,21.034l-4.857-0.703l4.28-29.567l5.321,0.771l8.655,22.728l3.045-21.034l4.857,0.703L234.077,510.493z
	 M262.564,491.869c-0.465,5.612-4.988,10.075-11.366,9.546c-6.293-0.521-10.019-5.668-9.554-11.281
	c0.465-5.611,4.988-10.074,11.281-9.553C259.304,481.11,263.03,486.255,262.564,491.869z M275.268,513.881
	c-5.418-0.144-10.309-4.073-10.13-10.771l4.905,0.13c-0.102,3.883,2.398,6.168,5.555,6.252c3.114,0.083,5.05-2.086,5.115-4.518
	c0.075-2.815-1.191-4.983-5.244-5.091l-2.005-0.054l0.116-4.353l2.047,0.056c3.541,0.094,4.655-1.67,4.723-4.229
	c0.067-2.517-1.649-3.844-4.122-3.909c-3.542-0.094-4.789,1.88-4.868,4.823l-4.905-0.13c0.147-5.546,4.13-9.24,9.548-9.096
	c5.119,0.135,9.385,3.494,9.253,8.441c-0.091,3.413-1.812,5.502-4.228,6.462c2.659,1.139,4.691,3.369,4.591,7.167
	C285.478,510.481,280.771,514.028,275.268,513.881z M296.611,513.458l-5.205,0.128l10.383-25.738l-12.116,0.297l-0.108-4.395
	l19.027-0.467L296.611,513.458z M322.408,512.727c-6.297,0.484-10.794-4.008-11.225-9.624l-0.767-9.956
	c-0.431-5.617,3.327-10.742,9.624-11.226c6.383-0.49,10.879,4.001,11.312,9.617l0.764,9.957
	C332.549,507.111,328.791,512.236,322.408,512.727z M347.568,510.083c-5.371,0.723-10.827-2.375-11.72-9.016l4.864-0.654
	c0.518,3.849,3.351,5.707,6.48,5.285c3.087-0.414,4.652-2.864,4.328-5.275c-0.376-2.791-1.971-4.73-5.989-4.189l-1.986,0.268
	l-0.581-4.313l2.029-0.272c3.511-0.474,4.328-2.393,3.987-4.93c-0.335-2.495-2.24-3.53-4.692-3.2
	c-3.512,0.472-4.429,2.618-4.034,5.537l-4.864,0.654c-0.74-5.498,2.602-9.78,7.974-10.503c5.074-0.683,9.821,1.952,10.481,6.858
	c0.455,3.383-0.91,5.72-3.143,7.053c2.808,0.699,5.171,2.577,5.677,6.341C357.103,505.097,353.024,509.349,347.568,510.083z"/>
</svg>
