<?xml version="1.0" encoding="UTF-8"?>
<?xml-stylesheet type="text/css" href="../style.css"?>
<svg xmlns="http://www.w3.org/2000/svg" xmlns:xlink="http://www.w3.org/1999/xlink" version="1.1" id="logo-fill" x="0" y="0" width="564.67" height="523.94" viewBox="0 0 564.67 523.94" enable-background="new 0 0 564.665 523.941" xml:space="preserve" class="logo">
  <line x1="225.46" y1="445.92" x2="225.45" y2="446"/>
  <path d="M139.97 133.88c-3.92-1.24-6.83 1.26-7.36 2.92 0.2-2.3-1.04-5.34-4.29-6.37 -2.7-0.85-7.38-0.99-9.63 6.11l-2.8 8.84 25.9 8.2 2.81-8.88C146.86 137.6 142.68 134.74 139.97 133.88M129.57 139.99l-1.45 4.59 -7.07-2.24 1.45-4.59c1.1-3.48 3.55-3.36 4.84-2.95C128.6 135.21 130.67 136.51 129.57 139.99M140.85 143.32l-1.52 4.81 -7.4-2.34 1.53-4.85c1.03-3.26 3.72-3.26 5.01-2.85C140 138.57 141.96 139.84 140.85 143.32"/>
  <path d="M155.3 119.48l2.08-4.21 -28.53-3.57 -1.39 2.82 20.23 20.43 2.07-4.21 -2.59-2.57 4.51-9.16L155.3 119.48zM144.19 125.18l-9.38-8.81 12.69 2.09L144.19 125.18z"/>
  <polygon points="141.82 97.16 161.05 110.1 163.54 106.39 144.31 93.46 148.08 87.85 144.77 85.62 134.76 100.5 138.07 102.73 "/>
  <polygon points="171.5 95.63 159.29 84.08 176.16 90.69 178.49 88.24 170.95 71.75 183.15 83.31 186.22 80.06 166.49 61.39 163.55 64.49 172.29 84.68 151.63 77.09 148.69 80.19 168.43 98.87 "/>
  <path d="M191.48 76.19l-1.12-3.47 8.21-6.07 2.99 2.08 3.78-2.79 -23.71-16.26 -2.53 1.87 8.6 27.43L191.48 76.19zM195.1 64.24l-6.02 4.46 -4.29-12.13L195.1 64.24z"/>
  <polygon points="210.98 62.91 202.08 45.76 220.52 57.96 224.87 55.7 212.35 31.59 208.39 33.65 217.29 50.8 198.85 38.6 194.51 40.85 207.02 64.97 "/>
  <polygon points="330.63 41.12 341.23 44.8 342.54 41.03 331.94 37.34 334.77 29.21 345.37 32.89 346.68 29.11 331.87 23.96 322.95 49.63 327.17 51.09 "/>
  <polygon points="353.26 62.31 355.03 58.72 347.51 55.01 357.77 34.23 353.77 32.25 341.74 56.61 "/>
  <rect x="351.44" y="51.36" transform="matrix(-0.5209 0.8536 -0.8536 -0.5209 600.978 -229.9651)" width="27.17" height="4.62"/>
  <polygon points="367.7 71.64 379.66 56.45 376.15 78.29 380 81.32 396.8 59.96 393.3 57.2 381.34 72.4 384.85 50.55 381 47.53 364.2 68.88 "/>
  <path d="M389.24 90.96c6.01 6.71 14.4 6.02 19.52 1.44 5.12-4.58 6.73-12.85 0.73-19.56l-5.87-6.56 -20.24 18.12L389.24 90.96zM403.61 72.27l2.9 3.24c4.04 4.51 2.81 10.24-0.8 13.48 -3.61 3.24-9.45 3.82-13.48-0.69l-2.9-3.24L403.61 72.27z"/>
  <polygon points="408.83 117.48 412.2 115.32 406.13 105.88 412.43 101.83 418.5 111.27 421.86 109.11 415.8 99.67 422.26 95.52 428.33 104.95 431.69 102.79 423.21 89.6 400.35 104.29 "/>
  <path d="M412.88 125.48l7.43-3.34 1.83 4.07 -5.39 7.87 2.09 4.64 5.86-8.55c2.81 2.65 6.85 3.22 10.39 1.62 4.67-2.1 7.13-7.33 4.74-12.64l-4-8.88 -24.77 11.15L412.88 125.48zM434.01 115.98l2.17 4.81c1.27 2.83-0.2 5.71-2.92 6.93 -2.73 1.23-5.85 0.42-7.13-2.41l-2.16-4.81L434.01 115.98z"/>
  <path d="M433.55 147.49c-0.14 1.97-0.34 4.57-3 5.3 -2.36 0.65-4.42-0.83-5.08-3.22 -0.82-2.95 0.53-5.63 3.94-6.57l-1.19-4.3c-5.87 1.63-8.02 6.82-6.7 11.57 1.35 4.86 5.33 8.19 10.72 6.69 5.01-1.39 5.37-6.77 5.7-11.25 0.17-2.14 0.66-4.29 2.79-4.88 2.21-0.61 3.83 0.87 4.42 3 0.68 2.43-0.67 4.42-3.25 5.13l1.19 4.3c4.86-1.35 7.18-5.9 5.88-10.61 -1.22-4.38-5.1-7.33-9.44-6.12C434.3 137.98 433.91 142.23 433.55 147.49"/>
  <polygon points="157.46 258.62 146.9 264.11 143.71 257.97 141.63 253.97 152.19 248.48 150.09 244.44 125.53 257.21 127.63 261.25 138.01 255.85 140.35 260.34 143.29 265.99 132.9 271.39 135 275.42 159.56 262.65 "/>
  <path d="M144.63 290.42c0.09 0.13 0.17 0.26 0.26 0.39 0.46 0.62 0.96 1.16 1.49 1.63 3.65 3.28 8.7 3.23 12.45 0.41l14.74-11.06 -2.73-3.64 -14.74 11.07c-2.08 1.56-4.76 1.77-6.76 0.33 -0.44-0.31-0.84-0.71-1.2-1.18 -0.18-0.24-0.33-0.49-0.46-0.74 -1.3-2.46-0.38-5.35 1.92-7.07l14.74-11.06 -2.73-3.64 -14.74 11.06C142.68 280.04 141.39 285.71 144.63 290.42"/>
  <polygon points="160.42 308.16 172 295.54 165.52 312.84 168.06 315.16 184.73 307.22 173.16 319.84 176.51 322.92 195.22 302.52 192.02 299.58 171.59 308.8 178.99 287.63 175.78 284.69 157.07 305.08 "/>
  <polygon points="197.2 336.47 199.39 333.03 189.76 326.89 193.86 320.46 203.5 326.6 205.69 323.17 196.05 317.02 200.26 310.42 209.9 316.56 212.09 313.13 198.61 304.54 183.73 327.88 "/>
  <polygon points="337.59 320.94 335.88 343.28 320.86 326.63 316.74 328.03 325.65 354.23 329.96 352.77 324.44 336.56 336.51 350.54 339.76 349.43 340.8 331 346.31 347.21 350.62 345.74 341.71 319.54 "/>
  <rect x="339.87" y="326.14" transform="matrix(-0.4495 -0.8933 0.8933 -0.4495 219.2495 792.0994)" width="27.68" height="4.71"/>
  <polygon points="369.35 307.96 367.18 304.5 351.71 314.23 353.88 317.68 359.67 314.04 372.24 334.03 376.09 331.61 363.52 311.62 "/>
  <path d="M397.07 303.83c1.4 2.98 0.35 7-2.06 9.11 -5.06 4.43-11.04 3.3-14.79-0.98 -3.57-4.08-4.12-10.22 0.68-14.42 3.42-3 7.59-2.8 10.6-0.39l3.6-3.15c-4.59-3.92-11.13-4.55-17.32 0.87 -6.55 5.73-6.01 14.51-1.06 20.17 5.13 5.86 13.73 7.33 20.54 1.36 5.12-4.48 6.2-11 3.58-15.85L397.07 303.83z"/>
  <polygon points="399.75 271.91 409.1 279.27 402.03 288.25 392.68 280.88 389.87 284.46 411.61 301.58 414.42 298.01 405.23 290.77 412.3 281.79 421.49 289.04 424.31 285.46 402.57 268.33 "/>
  <polygon points="428.85 278.34 434.4 268.46 436.67 264.41 433.12 262.42 431.05 266.1 427.52 272.38 420.86 268.65 424.78 261.67 426.46 258.68 422.91 256.68 421.43 259.31 417.31 266.65 410.48 262.82 415 254.77 416.08 252.85 412.53 250.86 411.66 252.41 404.71 264.79 "/>
  <polygon points="444.81 245.29 441.04 243.75 437.81 251.66 415.95 242.75 414.23 246.96 439.87 257.41 "/>
  <polygon points="450.17 227.25 446.26 226.13 443.91 234.35 421.21 227.87 419.96 232.24 446.58 239.84 "/>
  <path d="M254.39 288.64c0.75 0.26 1.52 0.53 2.29 0.81 5.84 2.08 12.45 4.45 20.12 2.99l2.08-0.4c6.41-1.24 7.4-1.43 11.47-0.59 1.05 0.22 2.12 0.52 3.25 0.83 2.51 0.7 5.24 1.46 8.28 1.46 1.77 0 3.64-0.26 5.64-0.93 6.97-2.36 11.58-3.68 16.84-2.14 6.87 2.02 11.09 2.34 13.67 1.05 0.72-0.36 1.02-1.24 0.65-1.97 -0.36-0.72-1.24-1.02-1.96-0.65 -1.79 0.9-5.67 0.48-11.54-1.24 -6.53-1.91-12.39 0.07-18.6 2.17 -4.58 1.55-8.45 0.47-12.19-0.58 -1.18-0.33-2.31-0.64-3.45-0.88 -4.64-0.95-6.17-0.66-12.61 0.58l-2.07 0.4c-6.88 1.31-12.83-0.81-18.59-2.87 -0.79-0.28-1.56-0.56-2.33-0.82 -5.26-1.81-11.62-1.34-18.91 1.39 -3.53 1.32-13.66-0.59-17.27-1.43 -0.79-0.18-1.58 0.3-1.76 1.09s0.3 1.58 1.09 1.76c1.42 0.33 13.97 3.2 18.97 1.32C244.1 287.52 249.79 287.06 254.39 288.64"/>
  <path d="M263.05 297.95c1.76 0.35 12.8 2.18 17.55 2.39l0.44 0.02c2.81 0.12 6.72 0.29 10.12 0.29 2.42 0 4.58-0.08 5.92-0.34 1.44-0.27 4.49-0.39 7.44-0.5 3.29-0.13 6.68-0.26 8.69-0.61 1.99-0.35 4.18-0.14 5.78 0.01 1.75 0.17 2.63 0.25 3.33-0.3 0.64-0.49 0.76-1.41 0.26-2.06 -0.42-0.54-1.13-0.7-1.73-0.45 -0.3 0.01-1.01-0.06-1.59-0.11 -1.77-0.17-4.18-0.4-6.56 0.02 -1.81 0.32-5.11 0.45-8.3 0.57 -3.2 0.12-6.22 0.24-7.86 0.55 -2.89 0.54-11.01 0.19-15.37 0l-0.44-0.02c-4.32-0.19-15-1.91-17.11-2.34 -2.27-0.46-7.63-0.21-12.64 1 -4.52 1.09-9.53 0.01-9.58-0.01 -0.79-0.18-1.57 0.32-1.75 1.11 -0.17 0.79 0.32 1.57 1.11 1.75 0.23 0.05 5.71 1.24 10.9-0.01C256.49 297.77 261.38 297.61 263.05 297.95"/>
  <path d="M478.78 375c-2.8 1.59-3.33 4.96-1.78 7.69 1.55 2.74 4.71 4.01 7.51 2.42 2.87-1.63 3.4-5 1.85-7.73C484.81 374.65 481.65 373.37 478.78 375z"/>
  <path d="M497.95 363.41c-2.71 1.75-3.05 5.14-1.35 7.78 1.7 2.65 4.93 3.74 7.64 2 2.77-1.79 3.11-5.18 1.41-7.82S500.72 361.63 497.95 363.41z"/>
  <path d="M270.71 417.54l-5.34-0.19 -0.4 11.15 5.34 0.19c3.14 0.11 5.27-2.37 5.38-5.39C275.8 420.28 273.85 417.65 270.71 417.54z"/>
  <path d="M95.36 378.07c-2.31-1.25-4.84-0.88-6.26 1.74l8.01 4.34C98.44 381.71 97.64 379.31 95.36 378.07z"/>
  <path d="M349.98 420.72c-3.18 0.54-4.82 3.53-4.29 6.63 0.53 3.1 3.07 5.38 6.24 4.84 3.25-0.55 4.9-3.54 4.37-6.64C355.77 422.45 353.23 420.17 349.98 420.72z"/>
  <path d="M564.18 367l-45.36-57.4c-0.02-0.03-0.05-0.05-0.07-0.07 -0.06-0.06-0.12-0.13-0.18-0.19 -0.04-0.04-0.09-0.08-0.14-0.12 -0.06-0.05-0.13-0.1-0.2-0.14 -0.05-0.03-0.11-0.06-0.17-0.09 -0.07-0.04-0.15-0.07-0.22-0.1 -0.06-0.02-0.13-0.04-0.19-0.06 -0.07-0.02-0.15-0.04-0.23-0.05 -0.03 0-0.06-0.02-0.1-0.02 -0.04 0-0.09 0-0.13 0 -0.04 0-0.08-0.01-0.12-0.01h-25.59 -5.44 -7.96 -5.21 -6.99 -5.01 -6.65 -4.81 -6.16 -4.64 -5.03 -4.49 -0.4c0.06-0.07 0.12-0.14 0.18-0.22 0.67-0.81 1.33-1.63 1.98-2.45 0.68-0.86 1.35-1.73 2.02-2.6 0.64-0.83 1.27-1.67 1.9-2.52 0.72-0.98 1.44-1.96 2.14-2.95 0.61-0.86 1.2-1.72 1.8-2.59 0.66-0.97 1.31-1.95 1.96-2.93 0.58-0.88 1.15-1.76 1.71-2.65 0.59-0.92 1.17-1.85 1.74-2.78 0.55-0.9 1.08-1.81 1.61-2.71 0.56-0.95 1.11-1.91 1.66-2.88 0.52-0.92 1.03-1.83 1.53-2.76 14.46-26.7 22.68-57.26 22.68-89.7C471.57 84.78 386.79 0 282.57 0S93.58 84.78 93.58 189c0 32.05 8.03 62.25 22.16 88.72 0.5 0.93 1 1.85 1.51 2.77 0.53 0.95 1.06 1.91 1.61 2.85 0.53 0.91 1.07 1.82 1.61 2.72 0.56 0.92 1.12 1.84 1.69 2.75 0.56 0.89 1.12 1.78 1.69 2.67 0.63 0.97 1.26 1.94 1.91 2.9 0.59 0.87 1.19 1.73 1.79 2.6 0.69 0.98 1.39 1.96 2.09 2.93 0.62 0.85 1.24 1.7 1.87 2.54 0.65 0.87 1.31 1.72 1.98 2.58 0.65 0.83 1.31 1.65 1.97 2.47 0.34 0.42 0.67 0.84 1.01 1.26h-2.3 -4.49 -5.03 -4.64 -6.16 -4.82 -6.65 -5.01 -6.99 -5.21 -7.96 -5.44H47.6c-0.04 0-0.08 0.01-0.12 0.01 -0.04 0-0.09 0-0.13 0 -0.03 0-0.06 0.02-0.1 0.02 -0.07 0.01-0.15 0.03-0.22 0.05 -0.07 0.02-0.14 0.04-0.2 0.06 -0.07 0.03-0.14 0.06-0.21 0.09 -0.06 0.03-0.12 0.06-0.18 0.1 -0.06 0.04-0.13 0.08-0.19 0.13 -0.05 0.04-0.11 0.09-0.16 0.13 -0.05 0.05-0.11 0.11-0.16 0.16 -0.03 0.03-0.06 0.06-0.09 0.09L0.48 367c-0.77 0.97-0.6 2.37 0.36 3.14 39.17 31.19 82.85 55.48 129.81 72.2 48.59 17.3 99.63 26.07 151.68 26.07 52.06 0 103.09-8.77 151.68-26.07 46.96-16.72 90.63-41.01 129.81-72.2C564.79 369.37 564.95 367.97 564.18 367zM510.55 313.23c-2.04 1.57-4.09 3.12-6.15 4.64l-6.57-4.64H510.55zM492.38 313.23l9.35 6.6c-1.53 1.11-3.06 2.21-4.6 3.29l-13.11-9.89H492.38zM478.81 313.23l15.6 11.77c-1.5 1.03-2.99 2.07-4.5 3.08l-18.46-14.85H478.81zM466.44 313.23l20.71 16.66c-1.58 1.04-3.16 2.07-4.75 3.08l-22.97-19.73H466.44zM454.61 313.23l25 21.48c-1.61 1-3.23 2-4.85 2.98l-26.64-24.45H454.61zM443.48 313.23l28.47 26.13c-1.46 0.87-2.93 1.72-4.41 2.56l-29.38-28.69H443.48zM433.67 313.23l31.03 30.31c-1.59 0.89-3.19 1.77-4.79 2.63l-31.59-32.94H433.67zM416.6 322.11c1-1 1.98-2.01 2.95-3.03l29.36 32.83c-1.77 0.88-3.55 1.74-5.33 2.6L416.6 322.11zM440.65 355.89c-1.76 0.83-3.52 1.65-5.3 2.44l-24.08-31.07c1.04-0.97 2.07-1.94 3.08-2.93L440.65 355.89zM421.7 316.77c0.93-1.01 1.84-2.03 2.74-3.05l32.6 33.99c-1.74 0.92-3.49 1.82-5.24 2.71L421.7 316.77zM467.04 185.44l-56.73-26.5c-11.31-48.05-49.1-86-97.07-97.53l-26.57-56.87C385.35 6.7 465.16 86.7 467.04 185.44zM411.6 165.05l51.82 24.22 -51.94 24.27c1.51-7.95 2.31-16.15 2.31-24.54C413.79 180.82 413.04 172.82 411.6 165.05zM378.76 196.76c1.4 16.32 5.46 29.72 7.04 34.44 -18.16 1.46-29.88 2.21-34.82 2.21 -0.88 0-1.7 0.07-2.47 0.2v-65.13l42.11-29.94C380.87 153.81 376.79 173.73 378.76 196.76zM362.2 121.53h11.3c-7.68 11.43-7.4 24.49-6.95 29.39 -3.32-0.42-10.42-1-18.05 0.26v-29.65H362.2zM348.5 118.6v-14.9l10.83 14.9H348.5zM364.3 153.65l-8.68 6.17h-7.11v-5.61C354.7 153.12 360.64 153.33 364.3 153.65zM351.49 162.75l-2.99 2.13v-2.13H351.49zM369.42 150c-0.36-5.23-0.25-18.01 7.68-28.47h4.59c0.81 0 1.47-0.66 1.47-1.46s-0.66-1.46-1.46-1.46h-18.75l-14.45-19.89v-3.66c0-0.81-0.65-1.46-1.46-1.46 -0.81 0-1.46 0.66-1.46 1.47v3.65l-13.7 18.62c-0.39-0.76-0.76-1.51-1.1-2.25 -0.01-0.02-0.02-0.04-0.03-0.06 -9.69-20.93-0.97-34.58 1.46-37.78l8.77-0.22c0.22-0.01 0.42-0.07 0.61-0.16 23.1 12.2 42.01 31.33 53.92 54.61L369.42 150zM295.59 234.8c6.28-2.36 12.65-2.96 19.04-1.82l6.79 17.43c-8.86 0.96-19.19 1.47-30.23 1.66v-15.31C292.56 236.06 294.03 235.39 295.59 234.8zM291.19 233.5v-60.73l22.25 57.14c-7.45-1-13.88 0.28-18.87 2.16C293.39 232.5 292.26 232.99 291.19 233.5zM318.09 233.77c6.23 1.72 12.48 5.08 18.73 10.08 0.16 0.35 0.3 0.65 0.42 0.9 -1.55 1.92-4.06 4.01-7.95 4.63 -1.55 0.25-3.17 0.48-4.84 0.69L318.09 233.77zM345.57 171.96v62.49c-3.81 1.62-5.71 4.75-6.24 6.69 -0.02 0.07-0.1 0.28-0.23 0.57C335.27 232.66 324.36 200.75 345.57 171.96zM330.38 219.88c0.89 7.74 2.74 14.24 4.36 18.78 -6.37-4.41-12.4-6.93-17.93-8.15l-25.62-65.81v-1.94h31.45c0 0 0 0 0 0 0 0 0 0 0 0h7.64 1.04 14.23v4.45C330.2 185.93 328.82 206.16 330.38 219.88zM326.18 111.59c-12.67-8.28-25.12-9.19-34.99-7.68V78.27l37.45-0.94C325.48 82.5 320.15 94.68 326.18 111.59zM328.29 116.69c0.29 0.62 0.6 1.24 0.92 1.88L291.19 118v-11.06C302.08 105.15 315.24 106.56 328.29 116.69zM328.97 121.49c-9.26 15.09-2.8 32.32 0 38.33h-5.44c-2.21-4.26-12.42-26.04 1.86-38.39L328.97 121.49zM321.25 121.37c-8.82 9.75-6.56 23.21-3.63 31.92 -5.35-3.35-15.52-8.54-26.43-7.96v-24.4L321.25 121.37zM319.48 158.1c0.28 0.65 0.55 1.22 0.78 1.72h-29.07v-11.55C304.74 147.52 317.57 156.68 319.48 158.1zM334.27 159.82c3.4-2.47 7.33-4.04 11.3-5v5H334.27zM331.49 158.24c-2.71-6.08-8.66-22.94 0.96-36.72h13.12v30.23C340.64 152.89 335.67 154.87 331.49 158.24zM334.57 118.6l11-14.95v14.95H334.57zM332.43 74.3c-0.49-0.29-1.1-0.28-1.57 0.04l-39.67 0.99V69.78c0-0.81-0.66-1.46-1.46-1.46 -0.81 0-1.46 0.66-1.46 1.47v5.63l-18.26 0.46c-0.81 0.02-1.45 0.69-1.43 1.5 0.02 0.8 0.67 1.43 1.46 1.43 0.01 0 0.03 0 0.04 0l3.37-0.08c-4.82 5.43-14.19 18.94-10.4 38.58 0 0 0 0.01 0 0.01 0.08 0.43 0.18 0.87 0.28 1.32 -1.27 1.36-4.21 4.89-6.14 10.27 -5.97-0.89-14.14-1.23-21.72-1.31v-7.83c6.5-0.02 10.59 2.88 10.86 3.07 0.49 0.36 1.16 0.38 1.67 0.05 0.51-0.33 0.77-0.95 0.63-1.55 -0.68-3.06-0.92-5.83-0.86-8.33 3.09-0.07 5.9-0.17 8.2-0.33 0.81-0.05 1.42-0.75 1.36-1.56 -0.05-0.81-0.77-1.41-1.56-1.36 -2.19 0.15-4.85 0.25-7.79 0.32 1.13-9.07 6.19-13.64 6.48-13.9 0.47-0.4 0.63-1.06 0.41-1.64 -0.22-0.58-0.79-0.96-1.41-0.93L235.46 94.1V82.65c0-0.81-0.66-1.46-1.46-1.46 -0.81 0-1.46 0.66-1.46 1.47v11.54l-13.74 0.39c-0.47 0.01-0.91 0.25-1.17 0.64 -3.3 4.86-4.99 9.93-5.73 14.67 -3.62-0.08-5.93-0.14-6.02-0.14 -0.8-0.05-1.48 0.61-1.5 1.42s0.61 1.48 1.42 1.51c0.09 0 2.28 0.06 5.75 0.14 -0.49 6.03 0.43 11.28 1.22 14.46 -7.93 7.66-13.17 18.45-12.6 30.08 -2.74 0.76-9.69 3.05-17.16 8.24 -8.48 5.89-19.14 16.76-22.49 35.28l-4.5-4.9c-0.13-2.31-0.19-4.63-0.19-6.97 0-69.88 56.86-126.74 126.74-126.74 19.18 0 37.37 4.29 53.69 11.95L332.43 74.3zM264.55 164.25c-0.8 1.47-1.56 3.01-2.28 4.65 -9.94 22.43-6.44 41.55-1.76 53.63 2.6 6.72 5.8 12.01 8.34 15.61 -4.29-2-8.37-3.44-12.21-4.43l-17.96-56.32 18.17-0.13c0.02 0 0.04 0 0.05-0.01 0.03 0 0.05-0.01 0.08-0.01 0.13-0.01 0.27-0.04 0.39-0.09 0.01 0 0.02 0 0.03-0.01 0.13-0.05 0.26-0.13 0.37-0.23 0.01-0.01 0.03-0.01 0.04-0.02 0.01-0.01 0.01-0.02 0.02-0.02 0.11-0.1 0.2-0.21 0.27-0.33 0.01-0.02 0.02-0.04 0.03-0.06 0.07-0.13 0.12-0.26 0.15-0.4v0c0.02-0.09 0.03-0.19 0.03-0.29 0-0.05-0.01-0.09-0.01-0.14 0-0.03 0-0.05-0.01-0.08 -0.02-0.14-0.06-0.28-0.13-0.41 0-0.01 0-0.02-0.01-0.03 -0.14-0.28-13.41-27.08-1.93-43C254.34 140.07 255.1 151.03 264.55 164.25zM272.19 153.85c-2.17 2.14-4.17 4.69-6 7.62 -12.01-17.54-7.88-30.27-3.96-36.67C261.55 131.43 262.46 142.48 272.19 153.85zM268.05 164.08c-0.01-0.01-0.01-0.02-0.02-0.03 0.08-0.13 0.16-0.26 0.24-0.39 0.34 5.8 1.9 20.93 9.14 31.65 -5.62 11.49-6.13 26.8-1.56 46.52 -0.22-0.13-0.43-0.25-0.65-0.37 -0.96-1.04-7.5-8.41-12.01-20.1 -6.47-16.79-5.88-34.04 1.75-51.27 0.57-1.28 1.17-2.5 1.78-3.68 0.06 0.01 0.11 0.02 0.16 0.02 0.31 0 0.62-0.1 0.88-0.3C268.41 165.64 268.54 164.72 268.05 164.08zM253.55 171.95c-6.89-4.15-12.92-6.45-18.08-7.58v-33.85c6.05 0.07 12.46 0.29 17.74 0.83C244.43 144.67 250.14 163.42 253.55 171.95zM251.88 174.36l-16.42 0.11v-7.11C240.21 168.48 245.67 170.64 251.88 174.36zM235.61 177.41l17.7 55.53c-6.9-1.4-12.91-1.37-17.85-0.72v-54.81L235.61 177.41zM254.34 236.16l5 15.69c-8.04-0.22-16.07-0.53-23.88-0.9v-15.77C240.56 234.46 246.93 234.44 254.34 236.16zM257.7 237.04c5.98 1.74 12.55 4.62 19.63 9.11 0.07 0.04 0.14 0.06 0.2 0.09 0.05 0.02 0.09 0.05 0.14 0.06 0.14 0.04 0.28 0.07 0.43 0.07 0.01 0 0.01 0 0.01 0 0.01 0 0.01 0 0.02 0 0.11 0 0.21-0.01 0.32-0.04 0.01 0 0.02 0 0.02 0 0.05-0.01 0.1-0.04 0.15-0.05 0.04-0.01 0.08-0.02 0.11-0.04 0.09-0.04 0.17-0.09 0.25-0.15 0 0 0.01 0 0.01 0 0.08-0.06 0.16-0.13 0.23-0.21 0 0 0.01-0.01 0.01-0.01 0.04-0.05 3.32-3.88 9.03-7.43v13.68c-8.35 0.09-17.06 0.01-25.82-0.19L257.7 237.04zM278.91 241.97c-5.23-22.02-4.07-38.28 3.57-49.61 2.47-3.66 4.39-8.36 5.79-12.6v55.26C283.96 237.47 280.77 240.18 278.91 241.97zM280.04 190.73c-0.36 0.54-0.7 1.09-1.04 1.64 -6.36-10.44-7.61-24.99-7.85-29.62h17.1v5.62C287.98 169.78 285.25 183.01 280.04 190.73zM270.87 159.82c1.13-1.49 2.31-2.84 3.55-4.04 0.4 0.04 0.82-0.08 1.14-0.37 0.31-0.29 0.47-0.68 0.47-1.07 3.12-2.62 6.56-4.42 10.32-5.35 0.64-0.16 1.28-0.28 1.92-0.39v11.23H270.87zM285.65 146.14c-4.12 1.02-7.88 2.95-11.28 5.76 -12.09-14.18-9.44-27.66-8.39-31.33l22.29 0.33v24.74C287.39 145.76 286.52 145.92 285.65 146.14zM275.11 108.84c-4.34 2-7.65 4.1-9.6 5.45 -1.91-13.82 3.09-24.14 7.31-30.11C271.44 89.98 270.91 98.64 275.11 108.84zM266.09 117.63c-0.01-0.04-0.02-0.09-0.03-0.13 2.4-1.76 10.82-7.46 22.2-9.99v10.45L266.09 117.63zM284.42 105.38c-2.37 0.67-4.59 1.46-6.63 2.3 -6.04-14.8-1.28-26.24 0.13-29.08l10.35-0.26v26.1C286.92 104.72 285.64 105.04 284.42 105.38zM236.35 113.1c2.9 0 5.76-0.02 8.47-0.06 -0.04 1.81 0.07 3.74 0.37 5.81 -2.19-0.99-5.54-2.06-9.73-2.05v-3.71C235.76 113.1 236.06 113.1 236.35 113.1zM235.46 110.17V97.03l14.7-0.42c-1.93 2.6-4.43 7.1-5.14 13.5C241.98 110.16 238.74 110.18 235.46 110.17zM203.82 171.57c-2.55 0.48-5 1.09-7.32 1.84 -0.17 0.03-0.33 0.08-0.49 0.16 -1.1 0.36-2.17 0.75-3.21 1.16 -0.2 0.03-0.39 0.1-0.57 0.22 -13.45 5.45-22.56 14.75-27.6 21.15 7.18-25.47 29.66-33.91 35.82-35.77 0.5 3.7 1.6 7.47 3.41 11.23C203.84 171.56 203.83 171.56 203.82 171.57zM231.83 177.43l-22.94 51.71c-0.77-1.48-1.46-2.94-2.1-4.38 0 0 0 0 0-0.01 -5.17-11.54-6.51-21.47-6.41-28.91 0.12-8.17 1.93-14.46 3.37-18.22L231.83 177.43zM187.48 180.42c-5.46 6.9-14.1 19.65-15.58 32.81l-8.92-9.7C165 200.21 173 188.23 187.48 180.42zM193.76 177.54c-1.64 3.73-4.02 10.34-5.09 19.06 -0.38 3.09-0.6 6.59-0.51 10.44 -6.35 1.04-10.69 3.71-13.26 5.85C177.1 196.42 191.4 180.13 193.76 177.54zM188.28 210c0.34 5.46 1.32 11.53 3.3 18.02 0.02 0.05 0.03 0.1 0.04 0.15l-0.4 0.1 -4.42 1.15L175.1 216.71C176.71 215 180.93 211.31 188.28 210zM192.53 230.97c0.07 0.19 0.14 0.39 0.21 0.58 0.05 0.13 0.09 0.25 0.14 0.38 0.37 1.02 0.76 2.04 1.18 3.08 0.07 0.17 0.14 0.35 0.22 0.52 0.53 1.29 1.11 2.59 1.72 3.91l-2.77-3.01 -0.4-0.43 -2.13-2.31 -0.32-0.35 -1.34-1.46L192.53 230.97zM195.33 230.1c0.15-0.12 0.26-0.27 0.35-0.44 0.08-0.14 0.13-0.29 0.16-0.46 0.03-0.2 0.04-0.4-0.01-0.61 -0.16-0.64-0.72-1.06-1.35-1.09 -0.1-0.33-0.19-0.66-0.29-0.99 -0.03-0.09-0.06-0.19-0.08-0.28 -3.37-11.54-3.45-21.63-2.55-29.13 1.36-11.29 5.1-19.02 6.14-21.01 1.27-0.4 2.58-0.76 3.93-1.08 -1.59 3.68-4.01 10.83-4.18 20.6 -0.14 7.96 1.3 18.65 6.98 31.04 0.02 0.03 0.03 0.07 0.05 0.1 0.93 2.03 1.97 4.1 3.14 6.21 0.06 0.17 0.14 0.32 0.26 0.46 1.68 2.98 3.61 6.04 5.82 9.17 0.05 0.09 0.11 0.18 0.18 0.26 0.01 0.01 0.02 0.02 0.03 0.02 1.68 2.36 3.52 4.76 5.54 7.2 -5.05-0.3-9.91-0.61-14.49-0.92l-0.56-0.6c-3.3-5.17-5.83-10.2-7.77-15.05 -0.06-0.14-0.11-0.29-0.17-0.43C196.05 232.08 195.68 231.08 195.33 230.1zM217.01 242.2c2.17-1.54 7.56-4.87 15.52-6.52v15.12c-3.07-0.15-6.09-0.31-9.06-0.48C221.09 247.56 218.94 244.86 217.01 242.2zM231.85 232.82c-8.45 1.77-14.13 5.26-16.53 6.98 -1.73-2.52-3.28-4.99-4.66-7.41l21.88-49.31v49.61C232.3 232.73 232.07 232.78 231.85 232.82zM205.02 174.69c0.07-0.15 0.14-0.28 0.2-0.39 1.4-0.24 2.83-0.45 4.3-0.59 0.4-0.04 0.77-0.24 1.02-0.56 0.1-0.12 7.01-8.65 22-6.35v7.7L205.02 174.69zM220.43 164.25c-6.73 1.64-10.55 5.26-11.77 6.6 -0.6 0.06-1.18 0.15-1.77 0.23 -7.71-15.19-2.86-30.62 6.95-40.75 0.28 0.3 0.68 0.46 1.12 0.45 0.15-0.01 8.08-0.32 17.58-0.29v33.33C227.59 163.11 223.55 163.49 220.43 164.25zM216.53 127.79c1.42-1.23 2.92-2.35 4.47-3.35 4.24-2.74 8.13-4.03 11.53-4.49v7.6C225.54 127.53 219.41 127.7 216.53 127.79zM219.42 121.98c-1.43 0.93-2.82 1.94-4.15 3.04 -0.58-2.84-1.17-7.21-0.74-12.16 4.93 0.1 11.41 0.2 18 0.23v3.89C228.66 117.45 224.23 118.88 219.42 121.98zM214.9 109.94c0.67-4.05 2.08-8.35 4.74-12.46l12.9-0.37v13.05C226.1 110.13 219.78 110.04 214.9 109.94zM183.58 230.25l-19.03 4.92c-4.26-10.85-7.06-22.43-8.17-34.5L183.58 230.25zM184.45 233.06l1.38-0.36 0.07 0.08 2.13 2.32 0.38 0.41 2.13 2.32 0.46 0.5 9.69 10.54c-1.33-0.09-2.63-0.19-3.9-0.28 -0.27-0.38-0.73-0.63-1.25-0.6 -0.38 0.02-0.72 0.18-0.98 0.44 -5.28-0.39-10.01-0.77-14.01-1.1 -0.56-0.05-1.1-0.09-1.63-0.14 -1.65-0.14-3.17-0.27-4.52-0.39 -0.59-0.05-1.14-0.1-1.67-0.15 -1.2-0.11-2.25-0.2-3.12-0.28 -0.16-0.31-0.32-0.62-0.48-0.93 -0.19-0.38-0.38-0.77-0.57-1.15 -0.46-0.95-0.92-1.91-1.36-2.88 -0.52-1.15-1.03-2.32-1.52-3.49L184.45 233.06zM175.61 249.84c0.58 0.05 1.18 0.1 1.81 0.16 4.54 0.39 10.28 0.85 16.89 1.34 0.44 3.1 1.9 9.11 6.67 10.17 0.88 0.2 1.95 0.4 3.14 0.63 5.6 1.07 14.96 2.87 18.09 6.74 2.67 3.3 3.76 7.16 4.17 9.18 -4.84 0.61-7.56 0.94-15.27 0.07 -7.36-0.84-14.99 0.5-17.53 1.02 -0.07-0.07-0.13-0.13-0.2-0.2 -0.75-0.74-1.49-1.49-2.22-2.26 -0.46-0.48-0.92-0.97-1.37-1.46 -0.72-0.77-1.43-1.56-2.13-2.35 -0.44-0.49-0.87-0.99-1.3-1.49 -0.69-0.8-1.36-1.61-2.03-2.43 -0.4-0.48-0.79-0.97-1.18-1.46 -0.66-0.83-1.3-1.67-1.94-2.51 -0.31-0.42-0.62-0.84-0.93-1.26 -0.62-0.85-1.24-1.71-1.84-2.58 -0.25-0.35-0.5-0.71-0.74-1.07 -0.59-0.87-1.18-1.76-1.75-2.65 -0.28-0.43-0.55-0.87-0.82-1.3 -0.56-0.9-1.11-1.8-1.65-2.71 -0.24-0.41-0.49-0.82-0.73-1.24 -0.52-0.89-1.02-1.8-1.52-2.7C172.47 249.56 173.94 249.69 175.61 249.84zM210.79 281.03c8.11 0.92 11.1 0.55 16.06-0.08l1.42-0.18c3.7-0.46 5.49-0.24 8.44 0.12 1.53 0.19 3.44 0.42 6.05 0.6 2.01 0.14 3.77 0.36 5.46 0.58 4.69 0.6 9.12 1.16 18.43 0.14 10.64-1.16 11.08-1.07 18.56 0.49 1.21 0.25 2.59 0.54 4.22 0.87 5.05 1.01 8.82 1.39 11.82 1.39 3.94 0 6.56-0.66 8.99-1.43 3.3-1.04 20.72-4 33.47-0.83 2.85 0.71 5.84 1.12 8.81 1.33 0.06 0.01 0.13 0.02 0.19 0.02 0.02 0 0.04-0.01 0.05-0.01 4.97 0.32 9.88 0.04 14.07-0.47 -0.63 0.56-1.27 1.13-1.92 1.68 -0.8 0.69-1.61 1.36-2.42 2.02 -0.55 0.45-1.09 0.89-1.65 1.33 -0.83 0.65-1.66 1.29-2.5 1.92 -0.86 0.64-1.73 1.27-2.61 1.9 -0.86 0.61-1.72 1.2-2.59 1.79 -0.9 0.61-1.81 1.2-2.73 1.79 -0.89 0.56-1.78 1.12-2.68 1.66 -0.87 0.53-1.75 1.04-2.64 1.55 -0.91 0.52-1.83 1.03-2.75 1.52 -1.09 0.58-2.19 1.15-3.29 1.7 -0.94 0.47-1.88 0.93-2.83 1.37 -0.95 0.45-1.9 0.88-2.86 1.3 -0.96 0.42-1.92 0.83-2.9 1.23 -1.1 0.45-2.22 0.89-3.34 1.31 -0.98 0.37-1.96 0.73-2.95 1.07 -1.29 0.45-2.58 0.89-3.89 1.29 -1 0.31-2 0.61-3.01 0.9 -1.59 0.45-3.19 0.87-4.8 1.26 -1.02 0.25-2.04 0.48-3.06 0.7 -1.22 0.26-2.44 0.51-3.66 0.74 -1.03 0.19-2.06 0.37-3.09 0.53 -1.42 0.23-2.84 0.44-4.28 0.61 -1.04 0.13-2.08 0.25-3.12 0.35 -1.57 0.16-3.14 0.28-4.73 0.38 -1.04 0.06-2.09 0.12-3.13 0.16 -1.39 0.05-2.78 0.09-4.19 0.09 -0.01 0-0.02 0-0.03 0 -0.2 0-0.4 0.01-0.6 0.01 -0.84 0-1.67-0.02-2.5-0.03 -0.01 0-0.02 0-0.03 0 -1.4-0.03-2.79-0.07-4.18-0.15 -1.05-0.05-2.09-0.12-3.13-0.2 -1.58-0.12-3.15-0.28-4.71-0.46 -1.04-0.12-2.08-0.25-3.11-0.4 -1.43-0.2-2.85-0.42-4.26-0.67 -1.03-0.18-2.06-0.37-3.09-0.58 -1.22-0.24-2.43-0.5-3.64-0.78 -1.02-0.24-2.04-0.49-3.05-0.75 -1.6-0.41-3.18-0.86-4.76-1.34 -1-0.3-2-0.62-3-0.94 -1.29-0.43-2.58-0.86-3.85-1.33 -0.99-0.36-1.97-0.73-2.94-1.11 -1.1-0.44-2.2-0.89-3.29-1.35 -0.97-0.41-1.93-0.84-2.88-1.27 -0.94-0.43-1.88-0.87-2.81-1.33 -0.94-0.46-1.88-0.93-2.81-1.41 -1.09-0.56-2.16-1.14-3.23-1.73 -0.92-0.51-1.83-1.03-2.74-1.56 -0.87-0.51-1.73-1.03-2.59-1.56 -0.89-0.56-1.78-1.12-2.66-1.69 -0.9-0.59-1.79-1.19-2.67-1.8 -0.87-0.6-1.72-1.21-2.57-1.83 -0.86-0.62-1.7-1.26-2.55-1.91 -0.83-0.64-1.66-1.29-2.48-1.96 -0.54-0.44-1.07-0.87-1.61-1.32 -0.81-0.68-1.61-1.36-2.4-2.06 -0.64-0.57-1.28-1.14-1.92-1.72 -0.3-0.28-0.59-0.56-0.89-0.84C199.54 281.1 205.32 280.41 210.79 281.03zM355.08 281.24l8.42-16.18c0.37-0.72 0.1-1.6-0.62-1.98 -0.72-0.37-1.6-0.09-1.97 0.62l-9.03 17.35c-2.48-0.21-4.99-0.59-7.44-1.2 -13.55-3.36-31.46-0.25-35.06 0.89 -3.13 0.99-7.43 2.35-19.36-0.04 -1.62-0.32-3-0.61-4.2-0.86 -7.79-1.63-8.64-1.72-19.48-0.54 -8.97 0.98-13.23 0.44-17.75-0.13 -1.73-0.22-3.53-0.45-5.62-0.59 -2.53-0.18-4.32-0.39-5.89-0.59 -2.69-0.33-4.58-0.56-7.75-0.28 -0.43-2.26-1.64-6.75-4.82-10.68 -3.8-4.7-13.44-6.55-19.82-7.77 -1.17-0.22-2.21-0.42-3.06-0.61 -2.63-0.58-3.84-4.32-4.32-7.09 2.14 0.16 4.36 0.31 6.65 0.47 0.11 0.02 0.22 0.04 0.32 0.04 0.04 0 0.07-0.01 0.11-0.01 5.65 0.39 11.72 0.77 18.07 1.13 0.11 0.03 0.23 0.04 0.34 0.04 0.06 0 0.11-0.01 0.16-0.01 3.25 0.18 6.57 0.36 9.94 0.53 0.27 0.31 0.66 0.52 1.11 0.52 0.4 0 0.75-0.16 1.02-0.41 8.53 0.41 17.34 0.75 26.13 0.97 0.08 0.01 0.15 0.04 0.22 0.04 0.06 0 0.11-0.02 0.17-0.03 22.76 0.56 45.3 0.29 62.15-1.72 0.02 0 0.05 0 0.07-0.01 2.08-0.25 4.09-0.52 5.98-0.82 9.44-1.5 12.27-9.89 12.39-10.25 0.01-0.03 0.02-0.05 0.02-0.08 0.02-0.06 1.57-5.61 8.82-5.61 5 0 16.7-0.74 34.79-2.19 -1.58 4.94-3.59 9.97-4.48 10.62 -1.23 0.54-10.07 1.08-17.97 1.29 -1.13-0.21-5.95-0.75-9.96 4.47 -0.78 1.01-1.36 1.88-1.87 2.64 -1.95 2.89-2.35 3.49-8.58 3.49 -2.07 0-7.81 0.22-15.75 0.53 -26 1-74.4 2.85-96.57 1.06 -0.83-0.07-1.51 0.54-1.58 1.34 -0.07 0.81 0.54 1.51 1.34 1.58 6.79 0.55 15.98 0.76 26.23 0.76 23.51 0 52.54-1.11 70.69-1.81 7.91-0.3 13.63-0.52 15.64-0.52 7.41 0 8.62-1.23 11.01-4.78 0.49-0.72 1.04-1.54 1.77-2.49 3.26-4.24 6.99-3.4 7.14-3.37 0.13 0.03 0.27 0.05 0.41 0.05 1.6-0.04 4.69-0.14 7.96-0.3 -1.93 4.62-4.33 8.69-5.34 8.95 -0.39 0.03-9.68 0.68-11.89 3.52 -0.38 0.49-0.72 1.06-1.09 1.66 -1.03 1.7-2.09 3.45-4.18 3.92 -2.49 0.55-21.21 0.99-33.18 1.15 -0.81 0.01-1.46 0.68-1.44 1.48 0.01 0.8 0.66 1.45 1.46 1.45h0.02c3.08-0.04 30.19-0.42 33.78-1.22 3.31-0.73 4.89-3.35 6.05-5.26 0.32-0.52 0.62-1.02 0.9-1.38 0.72-0.93 5.56-2.11 9.77-2.39 3.28-0.22 6.59-7.45 8.38-12.06 3.69-0.24 7.03-0.59 8.08-1.06 2.41-1.1 5.24-9.56 6.71-14.5 0-0.01 0-0.02 0.01-0.03 0.03-0.1 0.05-0.21 0.05-0.31 0 0 0 0 0-0.01 0.01-0.11-0.01-0.22-0.02-0.32 -0.01-0.03-0.02-0.07-0.03-0.1 -0.01-0.05-0.02-0.1-0.04-0.15 -0.06-0.15-5.81-15.64-7.5-35.56 -1.51-17.74 0.01-42.64 15.36-61.84 7.87 16.49 12.28 34.94 12.28 54.4 0 19.07-4.24 37.17-11.82 53.41 -0.45 0.96-0.91 1.92-1.38 2.87 -0.2 0.4-0.39 0.8-0.6 1.2 -0.48 0.94-0.98 1.88-1.48 2.81 -0.21 0.39-0.43 0.77-0.64 1.15 -0.52 0.93-1.04 1.85-1.58 2.76 -0.25 0.43-0.5 0.86-0.76 1.29 -0.55 0.91-1.11 1.81-1.68 2.7 -0.29 0.45-0.58 0.89-0.87 1.33 -0.58 0.88-1.17 1.76-1.78 2.63 -0.26 0.37-0.51 0.74-0.77 1.11 -0.61 0.86-1.24 1.72-1.87 2.56 -0.32 0.43-0.65 0.85-0.98 1.28 -0.64 0.84-1.3 1.67-1.96 2.49 -0.4 0.5-0.81 1-1.23 1.49 -0.68 0.81-1.36 1.61-2.06 2.4 -0.45 0.51-0.89 1.02-1.35 1.52 -0.71 0.78-1.43 1.56-2.15 2.32 -0.47 0.5-0.95 0.98-1.43 1.47 -0.74 0.75-1.49 1.49-2.24 2.23 0 0 0 0 0 0C366.71 280.74 361.09 281.42 355.08 281.24zM282.85 8.15l24.27 51.94c-7.95-1.51-16.15-2.31-24.54-2.31 -8.18 0-16.18 0.76-23.94 2.2L282.85 8.15zM279.02 4.53l-26.51 56.73c-48.05 11.31-86 49.1-97.53 97.07l-56.87 26.57C100.28 86.22 180.28 6.41 279.02 4.53zM153.56 212.94l-51.83-24.22 51.94-24.27c-1.51 7.95-2.31 16.15-2.31 24.54C151.35 197.17 152.12 205.18 153.56 212.94zM111.89 349.93c-1.74-0.89-3.47-1.8-5.2-2.72l32.59-33.98c0.3 0 0.58-0.06 0.84-0.17 0.78 0.9 1.57 1.79 2.37 2.67L111.89 349.93zM144.63 318.04c0.95 1.02 1.92 2.03 2.9 3.02l-27.45 32.95c-1.77-0.85-3.54-1.71-5.3-2.6L144.63 318.04zM134.93 313.23l-31.11 32.43c-1.59-0.87-3.17-1.75-4.75-2.64l30.51-29.8H134.93zM125.09 313.23l-28.86 28.18c-1.46-0.84-2.92-1.7-4.37-2.56l27.91-25.62H125.09zM115.13 313.23L89.05 337.17c-1.61-0.98-3.21-1.97-4.81-2.98l24.4-20.96H115.13zM103.82 313.23l-22.37 19.22c-1.58-1.01-3.14-2.04-4.71-3.08l20.07-16.15H103.82zM91.8 313.23l-17.81 14.33c-1.5-1.01-2.99-2.03-4.48-3.07l14.93-11.26H91.8zM79.23 313.23l-12.42 9.37c-1.53-1.08-3.06-2.17-4.57-3.27l8.63-6.09H79.23zM65.43 313.23l-5.84 4.13c-1.83-1.36-3.65-2.73-5.46-4.12H65.43zM53.91 371.92c-7.47-5.01-7.88-13.65-3.72-19.85 4.16-6.2 12.56-8.94 19.77-4.1 5.38 3.61 7.11 9.64 4.76 13.92l-3.78-2.53c1.12-2.51-0.06-5.9-3.23-8.03 -4.89-3.28-10.67-1.15-13.67 3.32 -3 4.47-3.03 10.45 2.61 14.23 3.88 2.6 7.86 1.68 10.2-0.82l-4.37-2.93 2.25-3.36 10.87 7.28 -2.25 3.36 -2.51-1.68C66.39 375.17 60.24 376.16 53.91 371.92zM72.04 382.67l14.05-23.64 3.68 2.19 -14.05 23.64L72.04 382.67zM89.64 389.13c2.14 1.16 3.49 0.64 4.56-0.25l3.8 2.06c-1.95 2.52-5.95 3.56-10.06 1.34 -5.42-2.94-6.02-8.09-3.46-12.82 2.62-4.83 7.45-6.91 12.53-4.15 4.18 2.27 5.76 7.19 3.53 11.3 -0.3 0.55-0.71 1.31-1.45 2.26l-11.5-6.24C86.5 385.02 86.49 387.43 89.64 389.13zM120.43 395.76l-4.65 9.84 -3.87-1.83 4.05-8.56c1.34-2.84 1.55-5.39-1.22-6.7 -2.7-1.28-5 0.28-6.35 3.13l-4.05 8.56 -3.87-1.83 7.83-16.55 3.87 1.83 -1.09 2.31c1.87-1.29 4.24-1.34 6.69-0.18 2.38 1.13 3.65 2.77 3.91 4.59C121.92 391.98 121.51 393.49 120.43 395.76zM128.26 357.85c-1.76-0.8-3.52-1.6-5.28-2.43l26.75-32.12c1 0.99 2.01 1.97 3.03 2.93L128.26 357.85zM223.81 386.27c-2.6-0.4-5.2-0.83-7.79-1.29l5.2-17.21c2.21 0.76 4.44 1.48 6.69 2.16L223.81 386.27zM230.93 370.82c2.62 0.75 5.26 1.43 7.93 2.06l-2.96 15.08c-3-0.36-5.99-0.76-8.97-1.19L230.93 370.82zM212.92 384.42c-2.36-0.44-4.72-0.9-7.07-1.39l6.52-18.57c1.95 0.78 3.92 1.54 5.9 2.26L212.92 384.42zM202.74 382.39c-2.16-0.46-4.31-0.94-6.45-1.44l7.96-19.97c1.72 0.79 3.46 1.55 5.21 2.29L202.74 382.39zM193.21 380.2c-2.46-0.6-4.92-1.22-7.37-1.87l9.75-21.58c1.92 1 3.85 1.97 5.81 2.9L193.21 380.2zM182.77 377.51c-2.16-0.59-4.31-1.2-6.45-1.83l11.62-23.13c1.61 0.94 3.23 1.85 4.87 2.74L182.77 377.51zM173.26 374.78c-2.28-0.69-4.56-1.41-6.83-2.15l13.82-24.81c1.65 1.06 3.31 2.1 4.99 3.12L173.26 374.78zM163.4 371.62c-2.29-0.76-4.57-1.55-6.84-2.36l16.26-26.49c1.58 1.13 3.18 2.24 4.8 3.32L163.4 371.62zM153.54 368.17c-1.73-0.63-3.46-1.28-5.19-1.94l18.51-27.9c1.13 0.88 2.26 1.74 3.41 2.59L153.54 368.17zM145.36 365.07c-2.02-0.79-4.03-1.61-6.03-2.44l21.22-29.44c1.27 1.08 2.55 2.14 3.85 3.18L145.36 365.07zM136.35 361.4c-1.72-0.73-3.43-1.48-5.14-2.24l23.86-30.79c1.02 0.93 2.05 1.85 3.09 2.76L136.35 361.4zM146.05 417.66l4.04-10.9 -10.65-3.95 -4.04 10.9 -4.24-1.57 9.56-25.79 4.24 1.57 -4.11 11.09 10.65 3.95 4.11-11.09 4.24 1.57 -9.56 25.79L146.05 417.66zM172.61 426.13l-4.1-1.24 0.74-2.44c-1.66 1.55-4 1.95-6.59 1.17 -2.52-0.76-4.01-2.2-4.55-3.96 -0.47-1.58-0.29-3.12 0.44-5.53l3.14-10.42 4.1 1.24 -2.73 9.06c-0.91 3.01-0.73 5.56 2.2 6.45 2.86 0.86 4.91-1.02 5.81-4.03l2.74-9.06 4.1 1.24L172.61 426.13zM198.1 421.26l-2.54 10.58 -4.16-1 2.21-9.2c0.74-3.06 0.42-5.6-2.56-6.31 -2.9-0.7-4.84 1.3-5.57 4.36l-2.21 9.21 -4.16-1 4.28-17.8 4.16 1 -0.6 2.48c1.57-1.64 3.88-2.18 6.51-1.54 2.56 0.62 4.13 1.97 4.77 3.69C198.78 417.26 198.69 418.82 198.1 421.26zM213.73 420.37l-4.13-0.79 -1.42 7.41c-0.6 3.12 0.29 3.7 1.95 4.01 0.66 0.13 1.71 0.25 2.15 0.25l-0.71 3.7c-0.68-0.01-1.93-0.13-3.17-0.37 -2.04-0.39-5.77-1.39-4.61-7.44l1.61-8.37 -3.05-0.59 0.68-3.51 3.05 0.59 1.05-5.44 4.21 0.81 -1.04 5.44 4.13 0.79L213.73 420.37zM219.92 436.3l-4.23-0.68 4.37-27.15 4.23 0.68L219.92 436.3zM243.02 440.89c-0.32 2.69-1.34 4.59-2.97 5.74 -1.64 1.15-3.9 1.56-6.71 1.22l0.01-0.08c-2.42-0.29-4.45-1.16-5.82-2.59 -1.37-1.43-2.09-3.41-1.83-5.91l4.29 0.51c-0.11 2.64 1.61 4.15 3.83 4.41 2.61 0.31 4.56-0.41 4.96-3.8l0.5-4.17c-1.36 1.82-3.59 2.62-6.29 2.3 -2.61-0.31-4.34-1.46-5.17-3.1 -0.74-1.47-0.83-3.03-0.53-5.52l1.28-10.81 4.25 0.51 -1.11 9.4c-0.37 3.12 0.25 5.61 3.29 5.97 2.97 0.35 4.65-1.86 5.02-4.98l1.12-9.4 4.25 0.5L243.02 440.89zM246.25 389.06c-2.42-0.23-4.83-0.48-7.23-0.75l2.89-14.74c2.14 0.47 4.29 0.91 6.45 1.31L246.25 389.06zM257.38 389.96c-2.67-0.17-5.34-0.37-8-0.6l2.08-13.94c2.41 0.4 4.83 0.77 7.27 1.08L257.38 389.96zM252.12 370.98c-1.03-0.17-2.06-0.35-3.09-0.54 -2.1-0.39-4.18-0.81-6.25-1.27 -1.02-0.23-2.04-0.46-3.06-0.7 -2.59-0.62-5.15-1.28-7.7-2 -1.01-0.29-2.01-0.59-3.01-0.9 -2.18-0.66-4.34-1.36-6.49-2.1 -0.99-0.34-1.98-0.69-2.96-1.05 -1.92-0.7-3.82-1.44-5.71-2.2 -0.97-0.39-1.94-0.78-2.91-1.19 -1.69-0.72-3.37-1.46-5.04-2.23 -0.95-0.44-1.9-0.88-2.85-1.33 -1.89-0.91-3.76-1.85-5.62-2.82 -0.93-0.48-1.86-0.97-2.78-1.47 -1.58-0.86-3.15-1.75-4.7-2.66 -0.91-0.53-1.81-1.06-2.71-1.6 -1.62-0.98-3.23-2-4.82-3.03 -0.88-0.57-1.76-1.15-2.63-1.73 -1.56-1.05-3.1-2.13-4.63-3.23 -0.85-0.61-1.7-1.23-2.54-1.85 -1.1-0.82-2.19-1.66-3.28-2.5 -0.83-0.65-1.65-1.3-2.46-1.96 -1.25-1.01-2.49-2.03-3.71-3.07 -0.8-0.68-1.59-1.37-2.38-2.06 -1-0.88-1.99-1.76-2.96-2.66 -0.77-0.71-1.54-1.42-2.31-2.15 -0.98-0.93-1.95-1.88-2.9-2.83 -0.74-0.74-1.48-1.49-2.21-2.24 -0.94-0.96-1.86-1.94-2.78-2.92 -0.72-0.77-1.43-1.54-2.13-2.32 -0.87-0.97-1.73-1.94-2.58-2.92 -0.69-0.8-1.36-1.6-2.04-2.41 -0.74-0.89-1.47-1.79-2.19-2.69 -0.66-0.82-1.31-1.64-1.96-2.47 -0.63-0.82-1.27-1.63-1.89-2.46 -0.63-0.84-1.25-1.7-1.86-2.55 -0.67-0.93-1.34-1.87-2-2.82 -0.6-0.86-1.2-1.73-1.78-2.6 -0.62-0.92-1.23-1.85-1.83-2.78 -0.57-0.88-1.12-1.78-1.68-2.67 -0.54-0.87-1.08-1.75-1.61-2.64 -0.54-0.9-1.08-1.81-1.6-2.72 -0.52-0.9-1.02-1.82-1.53-2.73 -0.51-0.92-1.01-1.85-1.5-2.78 -13.11-24.74-20.75-52.79-21.31-82.55l56.73 26.51c2.05 8.68 4.94 17.04 8.62 24.96 0.45 0.96 0.91 1.92 1.37 2.87 0.21 0.43 0.42 0.86 0.64 1.28 0.48 0.95 0.97 1.89 1.47 2.82 0.22 0.41 0.45 0.83 0.68 1.24 0.51 0.93 1.04 1.85 1.57 2.76 0.27 0.46 0.54 0.91 0.81 1.37 0.55 0.91 1.1 1.81 1.67 2.7 0.3 0.48 0.61 0.95 0.91 1.42 0.58 0.89 1.17 1.77 1.77 2.64 0.27 0.4 0.55 0.79 0.82 1.18 0.61 0.87 1.23 1.72 1.86 2.57 0.34 0.46 0.68 0.92 1.03 1.37 0.64 0.84 1.29 1.68 1.95 2.5 0.43 0.53 0.85 1.06 1.28 1.59 0.67 0.82 1.35 1.62 2.05 2.42 0.47 0.54 0.94 1.07 1.42 1.6 0.7 0.79 1.42 1.56 2.14 2.34 0.5 0.53 0.99 1.05 1.5 1.57 0.73 0.76 1.48 1.51 2.23 2.25 0.51 0.5 1.01 0.99 1.52 1.48 0.76 0.73 1.54 1.45 2.32 2.15 0.68 0.61 1.37 1.22 2.06 1.82 0.79 0.69 1.6 1.37 2.41 2.05 0.57 0.48 1.16 0.94 1.74 1.41 0.82 0.66 1.65 1.31 2.49 1.95 0.89 0.68 1.8 1.35 2.71 2.01 0.85 0.62 1.71 1.22 2.58 1.82 0.94 0.65 1.88 1.28 2.84 1.9 0.88 0.57 1.77 1.14 2.66 1.69 0.91 0.56 1.83 1.11 2.75 1.65 0.91 0.53 1.82 1.05 2.74 1.56 1.13 0.62 2.27 1.24 3.42 1.83 0.93 0.48 1.87 0.95 2.82 1.4 0.99 0.48 1.98 0.94 2.99 1.4 0.96 0.43 1.92 0.85 2.88 1.26 1.15 0.49 2.32 0.96 3.48 1.41 0.98 0.38 1.96 0.75 2.94 1.11 1.34 0.49 2.69 0.95 4.05 1.39 1 0.32 2 0.64 3 0.94 1.65 0.49 3.31 0.96 4.99 1.39 0.57 0.15 1.15 0.28 1.73 0.42l26.59 56.9c-1.74-0.04-3.48-0.08-5.22-0.17 -1.05-0.05-2.09-0.13-3.13-0.2 -2.57-0.17-5.13-0.4-7.68-0.68 -1.04-0.11-2.08-0.23-3.12-0.36C256.8 371.73 254.46 371.37 252.12 370.98zM280.04 377.96v12.79c-2.6-0.02-5.19-0.05-7.77-0.12l0.62-12.88C275.25 377.87 277.64 377.93 280.04 377.96zM269.75 377.55l-0.62 12.98c-2.88-0.1-5.75-0.23-8.61-0.39l1.32-13.29C264.46 377.13 267.1 377.37 269.75 377.55zM270.17 432.74l-5.34-0.19 -0.29 8.24 -4.52-0.16L261 413.15l9.86 0.35c5.89 0.21 9.54 4.78 9.36 9.97C280.03 428.65 276.06 432.95 270.17 432.74zM282.32 370.21l-24.46-52.34c0.7 0.14 1.41 0.27 2.12 0.4 1.48 0.26 2.98 0.49 4.47 0.7 1.03 0.14 2.07 0.28 3.11 0.4 1.64 0.19 3.29 0.35 4.94 0.48 1.04 0.08 2.09 0.15 3.13 0.2 1.46 0.08 2.93 0.12 4.4 0.15 0.01 0 0.02 0 0.03 0 0.83 0.02 1.67 0.03 2.5 0.03 0.2 0 0.4-0.01 0.6-0.01 0.01 0 0.02 0 0.03 0 1.47-0.01 2.94-0.04 4.4-0.1 1.05-0.04 2.09-0.09 3.13-0.16 1.66-0.1 3.31-0.23 4.96-0.39 1.04-0.1 2.08-0.22 3.12-0.35 1.51-0.19 3.01-0.4 4.5-0.64 1.03-0.16 2.07-0.34 3.09-0.53 0.27-0.05 0.54-0.11 0.81-0.16L282.32 370.21zM283.21 377.98c2.4-0.01 4.78-0.07 7.16-0.16l0.62 12.85c-2.59 0.06-5.18 0.09-7.77 0.09V377.98zM293.98 426.56c-3.65 0.06-5.62 2.17-5.55 6.73l0.13 7.9 -4.28 0.07 -0.3-18.3 4.28-0.07 0.05 2.95c0.8-1.7 3.17-3.23 5.6-3.27 0.67-0.01 1.22 0.06 1.69 0.25l0.06 3.93C295.01 426.58 294.65 426.54 293.98 426.56zM293.5 377.67c2.66-0.15 5.3-0.35 7.92-0.61l1.31 13.16c-2.87 0.15-5.74 0.27-8.61 0.36L293.5 377.67zM297.5 415.99c-0.07-1.77 1.28-3.24 3.01-3.31 1.77-0.07 3.24 1.28 3.32 3.04 0.08 1.73-1.28 3.2-3.04 3.28C299.05 419.07 297.57 417.72 297.5 415.99zM299.6 440.91l-0.79-18.29 4.28-0.18 0.79 18.29L299.6 440.91zM300.98 372.59c-2.55 0.25-5.11 0.45-7.69 0.6 -1.04 0.06-2.09 0.11-3.13 0.15 -1.28 0.05-2.56 0.09-3.84 0.12l27.06-56.9c1.68-0.4 3.34-0.83 4.99-1.3 1.01-0.29 2.01-0.58 3.01-0.89 1.38-0.43 2.74-0.88 4.1-1.35 0.99-0.34 1.98-0.7 2.96-1.06 1.18-0.44 2.36-0.9 3.53-1.38 0.97-0.4 1.94-0.8 2.9-1.22 1.02-0.44 2.03-0.9 3.03-1.37 0.95-0.44 1.9-0.9 2.83-1.36 1.17-0.58 2.33-1.18 3.48-1.79 0.93-0.49 1.85-1 2.76-1.52 0.94-0.53 1.88-1.07 2.81-1.63 0.9-0.54 1.8-1.09 2.69-1.65 0.97-0.61 1.94-1.24 2.9-1.88 0.87-0.58 1.74-1.18 2.6-1.78 0.93-0.66 1.86-1.32 2.77-2 0.84-0.63 1.68-1.26 2.51-1.91 0.6-0.47 1.19-0.94 1.78-1.42 0.82-0.66 1.63-1.33 2.43-2.01 0.71-0.6 1.41-1.21 2.11-1.83 0.79-0.7 1.57-1.4 2.34-2.12 0.53-0.49 1.06-0.98 1.58-1.48 0.76-0.73 1.51-1.47 2.25-2.22 0.52-0.52 1.03-1.05 1.55-1.58 0.73-0.76 1.45-1.53 2.16-2.31 0.49-0.54 0.98-1.08 1.46-1.63 0.7-0.79 1.39-1.59 2.07-2.39 0.45-0.53 0.89-1.07 1.33-1.6 0.67-0.82 1.32-1.64 1.97-2.48 0.36-0.46 0.72-0.93 1.07-1.4 0.64-0.84 1.26-1.69 1.88-2.55 0.29-0.4 0.57-0.81 0.86-1.21 0.61-0.86 1.2-1.74 1.79-2.62 0.32-0.48 0.64-0.96 0.96-1.45 0.57-0.89 1.14-1.78 1.69-2.68 0.29-0.47 0.57-0.94 0.85-1.41 0.54-0.91 1.07-1.82 1.6-2.74 0.24-0.42 0.48-0.85 0.71-1.27 0.51-0.93 1.01-1.86 1.5-2.8 0.23-0.44 0.45-0.88 0.67-1.32 0.48-0.94 0.94-1.9 1.4-2.85 3.81-8.04 6.82-16.53 8.95-25.36l56.87-26.57c-0.66 29.95-8.48 58.16-21.82 82.98 -0.5 0.93-1.01 1.85-1.52 2.77 -0.52 0.93-1.04 1.85-1.57 2.76 -0.53 0.91-1.06 1.82-1.61 2.72 -0.54 0.9-1.1 1.78-1.66 2.67 -0.56 0.89-1.13 1.78-1.7 2.66 -0.61 0.94-1.23 1.88-1.87 2.81 -0.59 0.87-1.19 1.73-1.8 2.59 -0.67 0.95-1.36 1.9-2.05 2.84 -0.62 0.85-1.25 1.69-1.89 2.53 -0.63 0.84-1.27 1.68-1.92 2.5 -0.65 0.83-1.31 1.64-1.98 2.46 -0.74 0.91-1.49 1.81-2.25 2.7 -0.68 0.8-1.36 1.6-2.06 2.39 -0.87 0.99-1.74 1.97-2.63 2.94 -0.71 0.78-1.42 1.54-2.15 2.31 -0.93 0.99-1.88 1.96-2.83 2.93 -0.74 0.75-1.49 1.48-2.24 2.22 -0.98 0.95-1.96 1.9-2.96 2.83 -0.77 0.72-1.53 1.43-2.31 2.14 -1 0.9-2 1.79-3.01 2.67 -0.79 0.69-1.6 1.36-2.4 2.03 -1.24 1.04-2.5 2.07-3.77 3.07 -0.82 0.65-1.65 1.29-2.48 1.93 -1.1 0.84-2.21 1.67-3.33 2.49 -0.85 0.62-1.69 1.24-2.55 1.84 -1.55 1.09-3.12 2.15-4.7 3.2 -0.87 0.58-1.75 1.15-2.64 1.72 -1.61 1.02-3.24 2.02-4.88 3 -0.9 0.54-1.8 1.07-2.72 1.59 -1.57 0.9-3.16 1.77-4.77 2.62 -0.92 0.49-1.85 0.98-2.78 1.46 -1.87 0.96-3.77 1.87-5.68 2.77 -0.95 0.44-1.9 0.88-2.85 1.31 -1.68 0.75-3.38 1.48-5.09 2.18 -0.97 0.4-1.94 0.8-2.91 1.18 -1.9 0.75-3.83 1.45-5.76 2.14 -0.99 0.35-1.97 0.69-2.97 1.02 -2.16 0.72-4.34 1.4-6.53 2.04 -1 0.29-2.01 0.58-3.02 0.86 -2.56 0.7-5.14 1.36-7.74 1.95 -1.02 0.23-2.04 0.45-3.07 0.67 -2.08 0.44-4.17 0.84-6.27 1.2 -1.03 0.18-2.06 0.35-3.1 0.52 -2.34 0.37-4.7 0.68-7.07 0.96C303.06 372.37 302.02 372.49 300.98 372.59zM399.51 337.37c1.32-1.04 2.62-2.1 3.91-3.18l20.82 28.89c-2.01 0.83-4.03 1.64-6.06 2.43L399.51 337.37zM415.18 366.66c-1.73 0.66-3.48 1.3-5.22 1.93l-16.4-26.72c1.16-0.85 2.32-1.71 3.46-2.58L415.18 366.66zM378.45 351.8c1.7-1 3.39-2.03 5.05-3.09l13.53 24.3c-2.28 0.73-4.57 1.44-6.86 2.13L378.45 351.8zM387.11 376.03c-2.15 0.62-4.31 1.23-6.48 1.81l-9.83-21.76c1.66-0.88 3.3-1.78 4.93-2.7L387.11 376.03zM354.03 363.95c1.77-0.72 3.52-1.47 5.26-2.25l7.78 19.54c-2.15 0.49-4.3 0.98-6.47 1.43L354.03 363.95zM357.5 383.3c-2.36 0.48-4.72 0.93-7.09 1.36l-5.24-17.34c2-0.7 3.98-1.43 5.95-2.2L357.5 383.3zM336.37 386.94c-2.98 0.43-5.98 0.81-8.98 1.17l-2.91-14.81c2.68-0.61 5.33-1.28 7.96-2L336.37 386.94zM324.26 388.47c-2.41 0.27-4.82 0.5-7.24 0.72l-2.08-13.98c2.17-0.38 4.33-0.79 6.48-1.24L324.26 388.47zM304.54 376.71c2.44-0.28 4.88-0.6 7.29-0.98l2.05 13.76c-2.66 0.22-5.34 0.41-8.01 0.57L304.54 376.71zM333.51 438.33l-0.99-10.2c-0.28-2.89-1.48-4.63-3.86-4.4 -2.15 0.21-3.7 1.7-3.28 6.04l0.9 9.27 -4.26 0.42 -1-10.24c-0.28-2.89-1.39-4.6-3.78-4.37 -2.15 0.21-3.78 1.71-3.36 6.05l0.9 9.27 -4.26 0.42 -1.77-18.22 4.26-0.41 0.25 2.54c0.62-1.76 2.4-3.27 4.79-3.5 3.32-0.32 5.1 0.96 6.06 2.69 0.68-1.92 2.7-3.54 5.28-3.79 5.47-0.53 6.93 3.11 7.26 6.52l1.12 11.53L333.51 438.33zM335.46 370.45c2.26-0.66 4.51-1.36 6.74-2.1l5.1 16.87c-2.6 0.45-5.2 0.87-7.81 1.27L335.46 370.45zM357.83 434.57l-0.41-2.44c-0.81 2.01-2.99 3.5-5.08 3.85 -5.5 0.94-10-2.8-10.87-7.91 -0.87-5.11 2.14-10.13 7.64-11.06 2.09-0.36 4.64 0.33 6.07 1.96l-0.41-2.44 4.22-0.72 3.07 18.05L357.83 434.57zM375.04 416.15c-3.57 0.79-5.07 3.26-4.09 7.71l1.71 7.71 -4.18 0.92 -3.95-17.88 4.18-0.92 0.64 2.88c0.44-1.83 2.46-3.8 4.84-4.33 0.65-0.15 1.21-0.19 1.71-0.1l0.85 3.84C376.04 415.96 375.69 416 375.04 416.15zM370.16 380.51l-8.01-20.12c1.97-0.92 3.93-1.87 5.87-2.85l9.54 21.12C375.1 379.31 372.64 379.92 370.16 380.51zM399.99 432.53c-1.09 1.68-3.04 2.9-5.77 3.64l-0.02-0.08c-2.35 0.64-4.56 0.59-6.37-0.22 -1.81-0.81-3.21-2.38-3.91-4.8l4.17-1.13c0.88 2.49 3.04 3.24 5.2 2.66 2.54-0.69 4.07-2.08 3.18-5.38l-1.1-4.06c-0.58 2.19-2.35 3.77-4.97 4.48 -2.54 0.69-4.57 0.27-5.96-0.94 -1.23-1.09-1.9-2.5-2.56-4.92l-2.85-10.5 4.13-1.12 2.48 9.14c0.83 3.03 2.33 5.11 5.28 4.3 2.88-0.78 3.62-3.47 2.79-6.5l-2.48-9.13 4.13-1.12 5.23 19.26C401.31 428.71 401.08 430.85 399.99 432.53zM400.07 372.03l-13.93-25.02c1.64-1.08 3.26-2.18 4.86-3.3l15.95 25.98C404.66 370.49 402.37 371.27 400.07 372.03zM424.25 417.28c-4.69 1.7-10.09-0.06-12.2-5.85l4.25-1.54c1.22 3.36 4.02 4.52 6.94 3.46 2.36-0.86 3.7-3.06 2.85-5.38 -0.95-2.62-3.59-2.63-5.59-2.61 -5.33 0.06-9.66 0-11.53-5.17 -1.56-4.28 1.12-8.43 5.44-10 4.65-1.69 9.43 0.3 11.17 5.1l-4.25 1.54c-0.92-2.55-3.03-3.75-5.43-2.88 -2.1 0.76-3.47 2.52-2.68 4.69 0.76 2.11 2.97 2.43 5.15 2.44 4.55-0.02 10-0.08 11.8 4.87C432.09 411.26 429.05 415.54 424.25 417.28zM427.23 361.86l-21.41-29.7c1.06-0.91 2.1-1.83 3.14-2.77l23.43 30.24C430.67 360.38 428.96 361.13 427.23 361.86zM445.49 408.68c-5.49 2.35-10.24-0.67-12.2-5.26 -1.94-4.55-0.85-10.1 4.6-12.43 5.49-2.35 9.15 0.02 10.79 3.17l-3.94 1.68c-1-1.75-2.61-2.52-5.29-1.37 -3.03 1.3-3.45 4.42-2.23 7.28 1.23 2.89 3.66 4.76 7.05 3.31 2.31-0.99 2.82-2.4 2.6-4.31l3.94-1.68C451.78 402.79 450.37 406.6 445.49 408.68zM469.52 396.97l-4.19-8.49c-1.39-2.82-3.26-4.57-6.01-3.21 -2.68 1.32-2.88 4.1-1.49 6.91l4.19 8.49 -3.84 1.9 -12.18-24.66 3.84-1.9 5.2 10.53c0.15-2.27 1.58-4.16 4.01-5.36 2.36-1.17 4.43-1.14 6.03-0.22 1.42 0.83 2.34 2.09 3.46 4.34l4.82 9.76L469.52 396.97zM486.39 388.43c-5.06 2.87-10.56 0.88-13.12-3.63 -2.56-4.51-1.43-10.25 3.63-13.12 5.13-2.9 10.63-0.92 13.19 3.59S491.52 385.52 486.39 388.43zM506.31 376.39c-4.89 3.15-10.49 1.48-13.3-2.88 -2.81-4.36-2.01-10.16 2.88-13.3 4.96-3.19 10.56-1.52 13.37 2.84C512.06 367.41 511.26 373.2 506.31 376.39zM518.33 367.79l-15.82-22.49 3.5-2.46 15.82 22.5L518.33 367.79z"/>
  <path d="M252.58 484.71c-3.49-0.29-6.02 2.41-6.3 5.81 -0.28 3.4 1.78 6.48 5.26 6.77 3.57 0.3 6.11-2.4 6.39-5.81C258.21 488.08 256.15 485 252.58 484.71z"/>
  <path d="M326.46 491.92c-0.25-3.28-2.68-5.87-6.08-5.61 -3.36 0.26-5.32 3.19-5.07 6.47l0.77 9.96c0.25 3.28 2.63 5.88 6 5.62 3.4-0.26 5.4-3.2 5.15-6.47L326.46 491.92z"/>
  <path d="M378.42 463.21c-62.08 12.78-127.62 12.78-189.7 0l-10.29 48.75c34.29 7.96 69.66 11.99 105.14 11.99 35.48 0 70.84-4.03 105.14-11.99L378.42 463.21zM234.08 510.49l-5.32-0.77 -8.65-22.73 -3.04 21.03 -4.86-0.7 4.28-29.57 5.32 0.77 8.65 22.73 3.05-21.03 4.86 0.7L234.08 510.49zM262.56 491.87c-0.46 5.61-4.99 10.07-11.37 9.55 -6.29-0.52-10.02-5.67-9.55-11.28 0.47-5.61 4.99-10.07 11.28-9.55C259.3 481.11 263.03 486.26 262.56 491.87zM275.27 513.88c-5.42-0.14-10.31-4.07-10.13-10.77l4.91 0.13c-0.1 3.88 2.4 6.17 5.56 6.25 3.11 0.08 5.05-2.09 5.12-4.52 0.08-2.81-1.19-4.98-5.24-5.09l-2-0.05 0.12-4.35 2.05 0.06c3.54 0.09 4.66-1.67 4.72-4.23 0.07-2.52-1.65-3.84-4.12-3.91 -3.54-0.09-4.79 1.88-4.87 4.82l-4.9-0.13c0.15-5.55 4.13-9.24 9.55-9.1 5.12 0.14 9.39 3.49 9.25 8.44 -0.09 3.41-1.81 5.5-4.23 6.46 2.66 1.14 4.69 3.37 4.59 7.17C285.48 510.48 280.77 514.03 275.27 513.88zM296.61 513.46l-5.2 0.13 10.38-25.74 -12.12 0.3 -0.11-4.39 19.03-0.47L296.61 513.46zM322.41 512.73c-6.3 0.48-10.79-4.01-11.22-9.62l-0.77-9.96c-0.43-5.62 3.33-10.74 9.62-11.23 6.38-0.49 10.88 4 11.31 9.62l0.76 9.96C332.55 507.11 328.79 512.24 322.41 512.73zM347.57 510.08c-5.37 0.72-10.83-2.37-11.72-9.02l4.86-0.65c0.52 3.85 3.35 5.71 6.48 5.29 3.09-0.41 4.65-2.86 4.33-5.27 -0.38-2.79-1.97-4.73-5.99-4.19l-1.99 0.27 -0.58-4.31 2.03-0.27c3.51-0.47 4.33-2.39 3.99-4.93 -0.33-2.49-2.24-3.53-4.69-3.2 -3.51 0.47-4.43 2.62-4.03 5.54l-4.86 0.65c-0.74-5.5 2.6-9.78 7.97-10.5 5.07-0.68 9.82 1.95 10.48 6.86 0.46 3.38-0.91 5.72-3.14 7.05 2.81 0.7 5.17 2.58 5.68 6.34C357.1 505.1 353.02 509.35 347.57 510.08z"/>
</svg>
