<svg xmlns="http://www.w3.org/2000/svg" width="32" height="32" viewBox="0 0 32 32"><circle fill="#5A54A4" cx="16" cy="16" r="16"/><path fill-rule="evenodd" clip-rule="evenodd" fill="#FFF" d="M24.98 16.01c0 1.95.03 3.9-.01 5.84-.04 1.68-1.52 3.16-3.2 3.22-1.25.05-2.5.03-3.75.03h-7.53c-1.68 0-2.98-.88-3.48-2.38-.13-.4-.19-.84-.19-1.26-.01-3.64-.01-7.29-.01-10.93 0-1.83 1.13-3.22 2.88-3.56.25-.05.52-.06.78-.06 3.62 0 7.25-.01 10.87 0 1.86 0 3.24 1.11 3.59 2.88.05.27.06.56.06.84V16c0 .01-.01.01-.01.01zm-13.69-1.87h-2.7c-.01.11-.01.2-.01.29v6.97c0 1.22.7 1.92 1.92 1.92h10.81c.21 0 .42-.01.62-.06.85-.23 1.31-.87 1.31-1.84v-7c0-.09-.01-.18-.02-.28h-2.66c.74 2.47.21 4.53-1.95 6.01-1.67 1.15-3.9 1.07-5.52-.07-.81-.57-1.42-1.31-1.79-2.24-.49-1.21-.47-2.44-.01-3.7zm4.61 5.06c1.74.01 3.19-1.42 3.21-3.15.02-1.79-1.39-3.23-3.17-3.25-1.77-.02-3.2 1.4-3.23 3.2-.02 1.73 1.42 3.19 3.19 3.2zm3.93-7.13h3.06V9.02h-3.06v3.05z"/></svg>