<svg xmlns="http://www.w3.org/2000/svg" width="314" height="295.229" viewBox="0 0 314 295.229">
  <path d="M235.105 280.293c-2.244 1.123-7.136.593-14.543-1.576-8.325-2.44-15.794.087-23.703 2.76-5.78 1.954-10.67.588-15.4-.733-1.51-.422-2.94-.82-4.39-1.12-5.92-1.218-7.87-.843-16.07.74l-2.63.504c-8.71 1.656-16.24-1.033-23.53-3.636-1-.356-1.98-.708-2.95-1.04-6.71-2.308-14.82-1.712-24.11 1.768-4.45 1.672-17.28-.75-21.84-1.824-1.08-.254-2.15.415-2.41 1.49-.26 1.074.41 2.15 1.49 2.404 1.8.424 17.77 4.068 24.16 1.676 8.39-3.146 15.59-3.73 21.39-1.73.95.327 1.92.673 2.91 1.024 7.43 2.652 15.84 5.66 25.62 3.798l2.64-.507c8.12-1.56 9.37-1.8 14.5-.74 1.32.27 2.68.65 4.12 1.06 3.2.9 6.67 1.87 10.55 1.87 2.25 0 4.65-.33 7.2-1.19 8.82-2.98 14.66-4.65 21.29-2.71 8.76 2.57 14.14 2.97 17.46 1.32.98-.49 1.39-1.69.89-2.68-.49-.98-1.69-1.39-2.68-.89zM215 289.56c-.384.016-1.26-.074-1.978-.143-2.25-.213-5.33-.506-8.367.026-2.292.4-6.474.563-10.518.72-4.064.16-7.904.31-10.006.703-3.64.683-13.94.233-19.47-.008l-.57-.024c-5.48-.238-19.02-2.43-21.69-2.963-2.9-.58-9.72-.26-16.11 1.27-5.68 1.36-11.99.02-12.1-.01-1.08-.24-2.14.44-2.38 1.52-.24 1.08.44 2.15 1.52 2.39.3.07 7.28 1.59 13.9-.01 6.1-1.46 12.28-1.65 14.4-1.23 2.23.45 16.26 2.78 22.31 3.04l.57.03c3.56.16 8.52.37 12.85.37 3.08 0 5.84-.11 7.54-.43 1.81-.34 5.68-.49 9.43-.63 4.17-.16 8.49-.33 11.05-.77 2.5-.43 5.28-.17 7.3.02 2.26.22 3.39.32 4.33-.4.87-.68 1.03-1.93.36-2.81-.56-.72-1.52-.96-2.33-.63zm98.477-209.91c-.682-.744-1.812-.865-2.636-.28l-34.04 24.208c-.43-6.758-.19-22.667 9.7-35.745h5.76c1.11 0 2-.896 2-2s-.89-2-2-2h-23.73l-18.27-25.15v-4.6c0-1.104-.89-2-2-2s-2 .896-2 2v4.593l-17.24 23.422c-14.3-27.922-2.76-46.218.47-50.49l11.07-.276c1.11-.028 1.98-.945 1.95-2.05-.02-1.103-.94-1.97-2.05-1.95l-10.7.27c-.64-.375-1.44-.347-2.07.05L177.5 8.908V2c0-1.104-.897-2-2-2s-2 .896-2 2v7.008l-23.05.575c-1.104.028-1.977.945-1.95 2.05.027 1.086.917 1.95 2 1.95h.05l3.957-.1c-6.196 7.076-17.792 24.157-13.026 48.85.01.01.01.02.01.03.1.524.22 1.055.34 1.585-1.64 1.762-5.31 6.21-7.73 12.927-7.54-1.115-17.8-1.538-27.34-1.646v-9.66c8.12.01 13.23 3.62 13.56 3.86.67.49 1.58.52 2.28.07.7-.46 1.05-1.3.87-2.11-.85-3.82-1.15-7.29-1.09-10.41 3.88-.09 7.39-.22 10.28-.42 1.11-.08 1.94-1.03 1.87-2.13-.07-1.11-1.04-1.94-2.13-1.87-2.74.18-6.05.31-9.71.39 1.47-11.35 7.8-17.08 8.16-17.39.64-.56.86-1.45.56-2.24-.3-.79-1.07-1.3-1.92-1.28l-22.69.64V18.33c0-1.103-.89-2-2-2s-2 .897-2 2v14.51l-17.3.49c-.64.02-1.24.346-1.6.877-4.17 6.15-6.32 12.56-7.27 18.552-4.53-.1-7.4-.18-7.52-.18-1.1-.05-2.02.84-2.05 1.94-.03 1.1.84 2.02 1.94 2.05.11 0 2.84.08 7.16.17-.59 7.57.55 14.14 1.55 18.17-10.04 9.72-16.68 23.4-15.98 38.15-8.04 2.34-42.83 14.69-50.27 55.02l-7.93-8.61c-.75-.82-2.01-.87-2.82-.12-.81.74-.86 2.01-.12 2.82l39.95 43.45-29.98 7.76c-1.07.27-1.71 1.37-1.44 2.44.24.9 1.05 1.5 1.94 1.5.17 0 .34-.02.51-.07l32.05-8.29 18.57 20.2c-1.55-.11-3.07-.22-4.56-.33-.38-.48-.98-.78-1.64-.77-.5.02-.94.23-1.28.55-21.11-1.57-35.24-2.94-35.69-2.98-1.097-.11-2.08.69-2.186 1.79s.693 2.08 1.79 2.18c.227.02 14.46 1.41 35.7 3 .586 4 2.487 11.55 8.56 12.9 1.115.25 2.475.51 3.996.8 7.085 1.36 18.946 3.63 22.88 8.5 3.3 4.09 4.69 8.85 5.24 11.44-6.04.76-9.51 1.16-19.21.06-11.21-1.27-22.94 1.43-23.43 1.54-1.073.25-1.74 1.33-1.49 2.4s1.33 1.75 2.405 1.5c.116-.03 11.56-2.66 22.07-1.46 10.317 1.17 14.12.69 20.42-.11l1.8-.228c4.69-.58 6.946-.3 10.686.16 1.95.24 4.378.535 7.686.766 2.55.18 4.77.46 6.92.73 5.96.76 11.59 1.47 23.436.176 13.477-1.47 14.045-1.35 23.52.62 1.538.32 3.297.69 5.37 1.105 6.43 1.285 11.226 1.772 15.04 1.772 5.026 0 8.35-.85 11.46-1.83 4.18-1.32 26.247-5.07 42.417-1.06 3.64.9 7.44 1.43 11.22 1.69.08.01.16.027.24.027.025 0 .047-.01.07-.01 12.967.833 25.656-1.515 30.59-3.16 1.05-.35 1.614-1.48 1.265-2.53-.35-1.047-1.48-1.62-2.53-1.265-2.82.94-13.85 3.475-26.18 3.124l10.58-20.34c.51-.98.13-2.19-.85-2.7-.99-.51-2.19-.13-2.7.86l-11.42 21.93c-3.12-.27-6.26-.75-9.33-1.51-17.23-4.27-40.01-.32-44.588 1.13-3.96 1.252-9.4 2.97-24.5-.05-2.06-.41-3.81-.78-5.33-1.098-9.915-2.067-10.995-2.19-24.778-.68-11.374 1.24-16.776.56-22.496-.167-2.203-.28-4.48-.57-7.146-.76-3.2-.22-5.47-.5-7.47-.74-3.39-.42-5.784-.71-9.74-.36-.576-2.93-2.13-8.56-6.12-13.5-4.86-6.017-17.125-8.367-25.243-9.92-1.476-.286-2.8-.538-3.88-.778-3.205-.718-4.724-5.246-5.34-8.7 11.95.87 25.81 1.78 40.49 2.55 1.47.075 2.97.15 4.475.23.36.38.87.62 1.44.62.5 0 .95-.19 1.3-.49 10.53.503 21.85.94 33.36 1.22.03.002.06.015.09.015s.05-.01.07-.01c28.03.68 57.19.394 79.02-2.2.04 0 .09-.006.13-.01 2.64-.31 5.18-.66 7.59-1.04 12.07-1.92 15.69-12.65 15.87-13.2.08-.29 2.07-7.03 11.07-7.03 6.34 0 21.13-.93 43.97-2.77-1.957 6.08-4.415 12.22-5.6 13.23-1.83.666-12.84 1.33-22.68 1.597-1.49-.27-7.65-.93-12.76 5.73-1 1.29-1.73 2.38-2.39 3.35-2.44 3.61-2.95 4.36-10.78 4.36-2.64 0-9.926.28-20.01.67-33 1.27-94.436 3.624-122.58 1.342-1.11-.096-2.07.73-2.16 1.83-.09 1.105.73 2.07 1.83 2.16 8.62.7 20.3.97 33.31.97 29.85 0 66.71-1.416 89.75-2.3 10.04-.385 17.3-.66 19.86-.66 9.48 0 11.02-1.58 14.094-6.13.62-.92 1.32-1.96 2.24-3.15 4.08-5.3 8.74-4.27 8.92-4.23.18.05.37.073.55.06 2-.05 5.82-.17 9.89-.37-2.42 5.75-5.32 10.68-6.57 11.07-.508.035-12.36.865-15.2 4.52-.49.63-.93 1.355-1.39 2.118-1.296 2.13-2.63 4.33-5.22 4.91-3.15.7-26.9 1.25-42.09 1.45-1.1.01-1.988.92-1.97 2.028.01 1.1.903 1.977 2 1.977h.022c3.91-.056 38.335-.536 42.904-1.55 4.26-.95 6.283-4.3 7.77-6.74.4-.665.78-1.29 1.13-1.737.89-1.15 6.99-2.626 12.3-2.98 4.215-.28 8.435-9.427 10.73-15.32 4.66-.31 8.88-.75 10.21-1.354 2.96-1.343 6.302-10.8 8.59-18.5 0-.014 0-.03.005-.043.034-.14.06-.28.07-.424v-.01c.01-.14-.01-.29-.03-.44-.01-.042-.027-.09-.04-.13-.02-.07-.03-.15-.06-.22-.29-.78-28.78-78.36 11.65-125.58.66-.77.64-1.91-.04-2.66zm-86.505 112.91c1.098 9.606 3.376 17.72 5.396 23.465-6.344-4.33-13.915-8.208-22.38-10.114L177.5 122.46v-2.293h68.75v5.46c-19.508 23.8-21.27 49.5-19.278 66.932zm-45.38 15.32c-1.427.534-2.79 1.116-4.093 1.728V133.48l27.88 71.615c-7.41-.975-15.41-.36-23.79 2.784zm25.43 1.435l8.518 21.877c-11.165 1.205-24.153 1.847-38.04 2.08v-19.19c1.712-.883 3.536-1.723 5.495-2.457 7.93-2.974 15.955-3.737 24.027-2.31zm-45.178 11.012c-6.565-27.8-5.08-48.325 4.564-62.626 2.984-4.42 5.337-10.03 7.09-15.21v69.2c-5.308 3.03-9.268 6.37-11.654 8.64zm-55.094-12.28v-69.11l22.318 70.004c-8.603-1.71-16.12-1.69-22.318-.89zm23.722 5.295l6.26 19.633c-10.09-.272-20.18-.666-29.98-1.133v-19.688c6.732-.936 14.697-.876 23.72 1.188zm-62.543 16.24l-.66-.716c-5.16-8.063-8.85-15.888-11.44-23.303.53-.483.8-1.234.6-1.98-.22-.837-.93-1.402-1.75-1.483-4.73-15.255-4.87-28.594-3.68-38.434 1.71-14.22 6.4-23.988 7.76-26.58 1.51-.473 3.06-.905 4.65-1.29-2.03 4.762-5 13.746-5.21 25.948-.31 17.62 5.32 33.754 12.89 47.4.08.28.22.538.41.758 2.29 4.068 4.76 7.905 7.29 11.493.07.147.16.29.27.42.02.024.05.043.07.066 2.24 3.16 4.52 6.11 6.78 8.85-6.28-.37-12.31-.76-18.02-1.15zm-22.72-86.708c-2.02 2.58-4.34 5.753-6.68 9.375-7.32 11.32-11.58 21.9-12.72 31.53l-11.04-12.01c2.6-4.27 12.55-19.06 30.44-28.9zm7.98-3.34c-2.06 4.86-4.85 12.95-6.14 23.455-.48 3.89-.76 8.3-.66 13.14-7.8 1.3-13.21 4.53-16.51 7.2 2.79-19.67 19.08-39.07 23.3-43.81zm9.01 22.526c.14-10.3 2.41-18.25 4.23-23.01l35.34-.25-28.91 65.18c-8.67-16.88-10.8-31.38-10.66-41.92zm44.53-27.29v-8.71c5.85 1.39 12.57 4.05 20.19 8.57l-20.2.14zm-4 .02l-34.56.24.11-.23c1.75-.3 3.54-.56 5.38-.74.55-.05 1.05-.328 1.39-.76.12-.158 8.81-10.87 27.67-8.03v9.515zm-27.47 73.63l27.47-61.93v62.19l-.76.15c-10.62 2.222-17.8 6.584-20.93 8.8-2.15-3.133-4.08-6.21-5.79-9.214zm35.61-69.69l22.87-.158c.02 0 .05-.008.07-.01.04 0 .07-.006.1-.01.18-.02.36-.057.53-.124l.04-.01c.18-.08.35-.19.5-.317.02-.01.03-.01.05-.03l.03-.03c.14-.13.26-.28.36-.45l.04-.08c.09-.17.16-.35.2-.55.02-.12.04-.26.04-.39 0-.06-.02-.13-.02-.19l-.01-.11c-.03-.19-.09-.38-.17-.55-.01-.01-.01-.02-.01-.03-.05-.09-4.58-9.15-6.96-20.6-3.51-16.86-.03-27.21 4.09-33.27-2.19 10.03-1 23.71 10.69 40.13-1 1.84-1.96 3.79-2.86 5.84-12.63 28.53-8.19 52.83-2.24 68.19 3.207 8.28 7.13 14.86 10.307 19.44-5.26-2.42-10.26-4.18-14.98-5.41l-22.71-71.24zm46.26 81.087c-2.6-2.84-35.31-40.063-12.99-90.437.7-1.594 1.45-3.11 2.21-4.57.04 0 .08.013.12.013.42 0 .84-.13 1.2-.404.26-.2.45-.46.59-.74.71 8.58 3.14 25.38 11.4 37.67-7.09 14.55-7.74 33.89-2.02 58.76-.18-.11-.36-.21-.54-.31zM173.5 50.07v12.95l-27.84-.41c3.164-2.306 13.68-9.352 27.84-12.537zm39.655 64.14c.313.72.612 1.377.884 1.956H177.5v-14.39c17.032-.88 33.165 10.58 35.655 12.435zM177.5 97.77V67.078l37.71.556c-10.892 12.275-8.196 29.05-4.54 40.082-2.356-1.45-5.395-3.15-8.94-4.74-8.446-3.793-16.69-5.548-24.23-5.204zm40.99 18.396c-2.86-5.562-15.562-32.926 2.322-48.45l4.257.063c-5.62 9.34-7.31 20.74-4.85 33.23 1.3 6.61 3.44 12.01 4.87 15.15h-6.61zm10.08-2.074c-3.46-7.802-10.82-28.92 1.233-46.26h16.446v38.184c-6.99 1.62-12.96 4.338-17.68 8.076zm17.68-3.96v6.034h-13.77c4.164-2.94 8.945-4.843 13.77-6.035zm-20.86-46.35l-47.89-.706V49.293c13.76-2.23 30.367-.422 46.835 12.34.334.71.688 1.43 1.056 2.15zm-79.936 2.823l28.045.414v31.14c-1.09.16-2.16.37-3.21.63-5.22 1.29-9.98 3.72-14.28 7.25-15.11-17.79-11.9-34.68-10.56-39.45zm10.655 44.718c.53.038 1.07-.13 1.49-.52.41-.377.62-.886.64-1.402 3.92-3.28 8.25-5.54 12.98-6.71.75-.18 1.51-.33 2.26-.46v13.95h-21.66c1.36-1.77 2.78-3.39 4.27-4.84zm17.39 15.817c-.37 1.857-3.84 18.58-10.41 28.325-.42.62-.8 1.27-1.19 1.913-7.9-13.115-9.51-31.22-9.83-37.21h21.42v6.972zm-25.36-5.517v.095l-.03-.05c0-.017.01-.03.02-.045zm102.1-1.457h3.22l-3.22 2.29v-2.29zm8.84-4h-8.85v-6.87c7.6-1.313 14.89-1.105 19.52-.72l-10.68 7.59zm13.77-11.312c-3.2-.384-8.98-.863-15.73-.416-2.38.157-4.68.424-6.89.786v-37.39h31.33c-9.54 14.37-9.28 30.69-8.72 37.02zm-9.29-41.02h-13.32V45.49l13.32 18.343zm-17.33 0H232.7l13.546-18.41v18.41zM224.6 11.73c-1.667 2.724-3.746 6.88-5.106 12.338-1.784 7.16-2.528 17.703 2.005 30.66-15.93-10.277-31.57-11.443-44.01-9.57v-32.25l47.1-1.178zm-51.1 1.28v32.873c-1.663.35-3.26.746-4.77 1.175-2.97.842-5.75 1.824-8.31 2.865-4.427-10.928-4.162-20.277-3.095-26.318.894-5.062 2.467-8.67 3.264-10.273l12.91-.323zm-19.7 7.677c-1.676 7.357-2.22 18.153 2.956 30.83-5.327 2.47-9.42 5.037-11.903 6.746C142.48 40.97 148.51 28.2 153.8 20.687zm-.758 88.033c-2.686 2.662-5.165 5.81-7.44 9.422-14.725-21.634-10.055-37.47-5.212-45.692-.732 8.483.648 22.186 12.652 36.27zm-24.144-28.445c-5.77 8.978-7.243 21.226-4.213 35.713 1.284 6.14 3.12 11.547 4.628 15.403-6.645-3.95-14.43-7.62-22.563-9.44v-42.7c7.557.09 15.53.37 22.148 1.03zm-26.148-5.073c-8.512-.024-15.998.17-19.775.292 1.708-1.45 3.5-2.78 5.36-3.98 5.297-3.42 10.16-5.057 14.415-5.658v9.346zm16.04-11.135c-2.77-1.22-6.9-2.5-12.04-2.512v-4.42h.993c3.628 0 7.214-.02 10.612-.07-.035 2.188.09 4.518.434 7.002zm6.202-27.855c-2.425 3.328-5.47 8.944-6.375 16.85-3.777.057-7.803.077-11.867.073V36.73l18.242-.518zm-38.397 1.09l16.155-.458v16.28c-8.035-.04-15.937-.16-22.07-.277.857-5.057 2.62-10.417 5.915-15.544zm16.155 19.82V61.8c-4.902.608-10.507 2.43-16.585 6.353-1.758 1.135-3.462 2.38-5.097 3.723-.72-3.577-1.41-8.95-.9-15.04 6.207.122 14.32.247 22.582.286zm-23.586 21.95c.378.34.88.532 1.417.51.2-.01 10.19-.4 22.17-.366v42.017c-5.06-.725-10.21-.67-15.25.562-8.5 2.08-13.37 6.64-14.98 8.375-.71.075-1.4.18-2.09.274-9.67-19.14-3.59-38.57 8.75-51.373zm-17.12 38.057c.64 4.61 2.01 9.29 4.235 13.97-3.2.6-6.26 1.37-9.17 2.31-.23.03-.44.1-.64.21-1.39.45-2.74.94-4.06 1.46-.27.04-.53.14-.76.29-16.72 6.78-28.15 18.23-34.64 26.34 9.24-31.54 37.08-42.17 45.02-44.6zM30.18 188.52c2.1-2.182 7.402-6.71 16.4-8.352.437 6.92 1.683 14.6 4.197 22.805l-5.904 1.526-14.693-15.98zm21.84 18.263c1.117 3.2 2.433 6.474 3.97 9.806l-8.047-8.75 4.078-1.06zm39.437 24.256c-2.968-3.43-5.656-6.81-8.075-10.13 2.79-1.95 9.48-6 19.368-8.07v18.79c-3.82-.19-7.593-.39-11.293-.6zm49.505 2.03l-5.913-18.55c7.56 2.23 15.8 5.88 24.62 11.48.09.06.19.09.29.13.06.02.11.06.17.08.2.06.4.1.6.1.15 0 .31-.03.46-.06.01-.01.02 0 .03-.01.06-.02.12-.05.19-.07.06-.02.11-.04.17-.06.1-.05.19-.11.29-.17.02-.02.04-.03.06-.05.11-.09.21-.18.3-.29l.02-.02c.06-.06 4.13-4.81 11.22-9.26v16.97c-10.53.11-21.5.01-32.54-.25zm84.722-3.23c-1.934.31-3.948.59-6.037.86l-7.91-20.32c7.787 2.19 15.61 6.42 23.427 12.67.178.39.338.74.476 1.03-1.952 2.4-5.104 4.98-9.956 5.75zm12.652-10.36c-.02.06-.082.22-.165.42-2.12-5.06-5.8-15.24-7.24-27.96-2.52-22.39 2.64-42.47 15.32-59.79v78.78c-4.83 2.08-7.23 6.07-7.91 8.55zm50.047-56.29c1.757 20.53 6.844 37.44 8.883 43.58-22.94 1.85-37.754 2.78-44.016 2.78-1.068 0-2.06.09-3 .23v-82.45l52.812-37.55c-12.1 19.34-17.158 44.43-14.68 73.4z"/>
</svg>
