<svg xmlns="http://www.w3.org/2000/svg" width="32" height="32" viewBox="0 0 32 32"><path fill="#2CAAE1" d="M16 0C7.164 0 0 7.164 0 16c0 8.838 7.164 16 16 16s16-7.162 16-16c0-8.836-7.164-16-16-16"/><path fill="#FFF" d="M22.362 12.738c.007.14.01.28.01.424 0 4.338-3.302 9.34-9.34 9.34-1.854 0-3.58-.543-5.032-1.475.26.03.52.045.783.045 1.54 0 2.953-.523 4.076-1.404-1.437-.027-2.65-.977-3.066-2.28.2.038.405.06.617.06.3 0 .59-.04.865-.115-1.5-.303-2.633-1.63-2.633-3.22v-.04c.443.246.95.393 1.487.41-.882-.588-1.46-1.594-1.46-2.732 0-.6.16-1.165.443-1.65 1.618 1.987 4.038 3.293 6.766 3.43-.057-.24-.086-.49-.086-.748 0-1.813 1.47-3.28 3.283-3.28.943 0 1.797.397 2.396 1.034.747-.147 1.45-.42 2.085-.797-.246.767-.766 1.41-1.443 1.815.664-.078 1.297-.255 1.885-.515-.44.657-.996 1.235-1.638 1.698"/></svg>